<svg width="235" height="79" viewBox="0 0 235 79" fill="none" xmlns="http://www.w3.org/2000/svg">
<rect width="235" height="79" rx="15" fill="#4C4FFB"/>
<path d="M24.44 36.68C24.68 36.968 24.848 37.2 24.944 37.376C25.04 37.552 25.088 37.72 25.088 37.88C25.088 38.072 24.96 38.296 24.704 38.552C24.464 38.808 24.224 38.936 23.984 38.936C23.664 38.936 23.408 38.888 23.216 38.792C23.024 38.696 22.864 38.544 22.736 38.336C22.48 37.952 22.168 37.624 21.8 37.352C21.432 37.064 20.856 36.92 20.072 36.92C19.4 36.92 18.632 37.072 17.768 37.376C16.92 37.68 16.312 38.056 15.944 38.504C15.624 38.904 15.344 39.512 15.104 40.328C14.88 41.144 14.768 41.936 14.768 42.704C14.768 43.632 14.968 44.488 15.368 45.272C15.784 46.04 16.376 46.656 17.144 47.12C17.928 47.584 18.864 47.816 19.952 47.816C20.544 47.816 21.152 47.704 21.776 47.48C22.416 47.24 22.968 46.856 23.432 46.328H23.408C23.696 46.024 24.056 45.872 24.488 45.872C24.744 45.872 24.984 45.984 25.208 46.208C25.448 46.432 25.568 46.656 25.568 46.88C25.568 47.12 25.528 47.336 25.448 47.528C25.384 47.704 25.256 47.904 25.064 48.128C24.408 48.864 23.632 49.368 22.736 49.64C21.84 49.912 20.768 50.048 19.52 50.048C18.416 50.048 17.296 49.784 16.16 49.256C15.04 48.728 14.176 48.088 13.568 47.336C13.248 46.872 12.936 46.208 12.632 45.344C12.344 44.464 12.2 43.752 12.2 43.208C12.2 41.816 12.408 40.496 12.824 39.248C13.256 37.984 13.896 36.976 14.744 36.224C15.304 35.712 16.112 35.328 17.168 35.072C18.224 34.816 19.192 34.688 20.072 34.688C21.144 34.688 21.984 34.84 22.592 35.144C23.216 35.432 23.832 35.944 24.44 36.68ZM30.3819 46.28C30.3819 46.888 30.4699 47.36 30.6459 47.696C30.8379 48.016 31.0779 48.176 31.3659 48.176C31.5259 48.176 31.6779 48.168 31.8219 48.152C31.9659 48.12 32.1099 48.104 32.2539 48.104C32.4139 48.104 32.5499 48.184 32.6619 48.344C32.7899 48.504 32.8539 48.68 32.8539 48.872C32.8539 49.256 32.6699 49.56 32.3019 49.784C31.9499 49.992 31.4699 50.096 30.8619 50.096C30.4299 50.096 29.9899 49.968 29.5419 49.712C29.1099 49.44 28.7499 49.024 28.4619 48.464C28.1739 47.888 28.0299 47.176 28.0299 46.328C28.0299 44.504 28.0619 42.96 28.1259 41.696C28.2059 40.192 28.2459 38.296 28.2459 36.008C28.2459 35.288 28.2859 34.784 28.3659 34.496C28.4619 34.272 28.6139 34.104 28.8219 33.992C29.0459 33.864 29.2779 33.8 29.5179 33.8C29.7579 33.8 29.9659 33.84 30.1419 33.92C30.3339 34 30.4619 34.128 30.5259 34.304C30.5899 34.496 30.6299 34.688 30.6459 34.88C30.6779 35.056 30.6939 35.312 30.6939 35.648C30.6939 36.304 30.6699 36.936 30.6219 37.544C30.5899 38.28 30.5739 38.816 30.5739 39.152C30.4459 41.968 30.3819 44.344 30.3819 46.28ZM35.7148 34.592C36.2748 34.64 36.7628 34.792 37.1788 35.048C37.5948 35.288 37.8028 35.656 37.8028 36.152C37.8028 36.52 37.6268 36.816 37.2748 37.04C36.9388 37.248 36.5308 37.352 36.0508 37.352C35.5868 37.352 35.2668 37.232 35.0908 36.992C34.9148 36.752 34.8268 36.504 34.8268 36.248C34.8268 35.768 34.8748 35.368 34.9708 35.048C35.0828 34.728 35.3308 34.576 35.7148 34.592ZM37.6348 45.224V45.92C37.6348 46.544 37.6508 47.136 37.6828 47.696C37.7308 48.24 37.7868 48.792 37.8508 49.352C37.8348 49.512 37.7148 49.68 37.4908 49.856C37.2668 50.016 37.0668 50.096 36.8908 50.096C36.5868 50.096 36.2748 50.04 35.9548 49.928C35.6508 49.8 35.4668 49.648 35.4028 49.472C35.3068 48.96 35.2588 48.504 35.2588 48.104C35.2588 46.792 35.2188 45.32 35.1388 43.688C35.0748 42.248 35.0428 41.24 35.0428 40.664C35.0428 40.376 35.1868 40.128 35.4748 39.92C35.7628 39.712 36.0668 39.608 36.3867 39.608C36.8508 39.608 37.1708 39.712 37.3468 39.92C37.5388 40.128 37.6348 40.456 37.6348 40.904V45.224ZM48.0954 42.728C47.8554 42.728 47.6474 42.672 47.4714 42.56C47.3114 42.432 47.1434 42.264 46.9674 42.056C46.7914 41.848 46.5994 41.712 46.3914 41.648C46.1994 41.584 45.9754 41.552 45.7194 41.552C45.2554 41.552 44.7994 41.696 44.3514 41.984C43.9194 42.256 43.5594 42.64 43.2714 43.136C42.9994 43.632 42.8634 44.184 42.8634 44.792C42.8634 45.464 42.9914 46.024 43.2474 46.472C43.5194 46.92 43.9434 47.312 44.5194 47.648C44.7274 47.76 44.9674 47.848 45.2394 47.912C45.5274 47.976 45.7754 48.008 45.9834 48.008C46.4794 48.008 47.1194 47.792 47.9034 47.36C47.9674 47.328 48.0874 47.272 48.2634 47.192C48.4554 47.096 48.5994 47.048 48.6954 47.048C48.8714 47.048 49.0714 47.136 49.2954 47.312C49.5194 47.472 49.6314 47.672 49.6314 47.912C49.6314 48.392 49.4234 48.8 49.0074 49.136C48.6074 49.472 48.1034 49.72 47.4954 49.88C46.8874 50.04 46.2874 50.12 45.6954 50.12C44.7514 50.12 43.8714 49.904 43.0554 49.472C42.2394 49.04 41.5914 48.44 41.1114 47.672C40.6314 46.904 40.3914 46.04 40.3914 45.08C40.3914 44.04 40.6234 43.104 41.0874 42.272C41.5514 41.424 42.1754 40.76 42.9594 40.28C43.7594 39.784 44.6234 39.536 45.5514 39.536C46.4474 39.536 47.2714 39.712 48.0234 40.064C48.7914 40.416 49.1754 40.952 49.1754 41.672C49.1754 42.376 48.8154 42.728 48.0954 42.728ZM53.4013 50.096C53.0813 50.096 52.8093 50.04 52.5853 49.928C52.3613 49.816 52.2253 49.696 52.1773 49.568C52.0013 48.928 51.9133 48.088 51.9133 47.048C51.9133 45.128 51.9453 43.568 52.0093 42.368C52.0733 40.944 52.1053 39.576 52.1053 38.264C52.1053 37.88 52.0573 37.32 51.9613 36.584C51.9453 36.456 51.9213 36.224 51.8893 35.888C51.8573 35.552 51.8413 35.24 51.8413 34.952C51.8413 34.6 51.9613 34.32 52.2013 34.112C52.4573 33.904 52.7853 33.8 53.1853 33.8C53.5053 33.8 53.7613 33.904 53.9533 34.112C54.1613 34.304 54.2653 34.568 54.2653 34.904C54.2653 35.416 54.2813 36.136 54.3133 37.064C54.3453 37.928 54.3613 38.576 54.3613 39.008C54.3613 39.488 54.3453 40.128 54.3133 40.928C54.2813 41.408 54.2653 41.76 54.2653 41.984C54.2653 42.688 54.2733 43.272 54.2893 43.736C54.8813 43.144 55.6573 42.448 56.6172 41.648C57.5773 40.848 58.3213 40.288 58.8493 39.968C59.4093 39.632 59.7773 39.464 59.9533 39.464C60.2893 39.464 60.5773 39.536 60.8173 39.68C61.0573 39.824 61.1773 40.032 61.1773 40.304C61.1773 40.576 61.1373 40.792 61.0573 40.952C60.9773 41.112 60.8333 41.272 60.6253 41.432L57.9133 43.424C58.1853 43.536 58.4413 43.784 58.6813 44.168C58.9373 44.552 59.2413 45.072 59.5933 45.728C59.9933 46.48 60.3213 47.04 60.5773 47.408C60.8493 47.776 61.1213 47.96 61.3933 47.96L61.9933 47.936C62.1053 47.936 62.2013 48 62.2812 48.128C62.3773 48.256 62.4253 48.44 62.4253 48.68C62.4253 49.048 62.2413 49.344 61.8733 49.568C61.5213 49.792 61.1213 49.904 60.6733 49.904C60.0493 49.904 59.4973 49.664 59.0173 49.184C58.5373 48.688 58.0813 48.024 57.6493 47.192L57.1213 46.136C56.8973 45.688 56.7213 45.368 56.5933 45.176C56.4813 44.984 56.3453 44.856 56.1853 44.792L54.2653 46.328L54.3613 48.944C54.3613 49.36 54.2493 49.656 54.0253 49.832C53.8173 50.008 53.6093 50.096 53.4013 50.096ZM72.2463 34.784C72.2463 35.2 72.2383 35.688 72.2223 36.248C72.2063 36.792 72.1903 37.208 72.1743 37.496C72.1263 38.312 72.1023 39.128 72.1023 39.944C72.1023 40.552 72.1263 41.184 72.1743 41.84C72.6703 41.12 73.2063 40.592 73.7823 40.256C74.3583 39.92 75.0543 39.752 75.8703 39.752C76.4623 39.752 77.0143 40.016 77.5263 40.544C78.0383 41.072 78.3663 41.688 78.5103 42.392C78.5583 43.016 78.5823 43.776 78.5823 44.672C78.5823 45.248 78.6143 46 78.6783 46.928C78.7103 47.28 78.7983 47.608 78.9423 47.912C79.1023 48.216 79.3263 48.368 79.6143 48.368C79.7583 48.368 79.8703 48.36 79.9503 48.344C80.0463 48.328 80.1343 48.32 80.2143 48.32C80.4383 48.32 80.5903 48.376 80.6703 48.488C80.7663 48.6 80.8143 48.76 80.8143 48.968C80.8143 49.352 80.6223 49.64 80.2383 49.832C79.8543 50.024 79.5023 50.12 79.1823 50.12C78.0303 50.12 77.2383 49.64 76.8063 48.68C76.5663 48.136 76.4143 47.432 76.3503 46.568C76.2863 45.688 76.2543 44.664 76.2543 43.496C76.2543 42.344 75.8623 41.768 75.0783 41.768C74.6463 41.768 74.2063 42 73.7583 42.464C73.3263 42.912 72.9663 43.512 72.6783 44.264C72.3903 45 72.2463 45.768 72.2463 46.568L72.2703 49.064C72.2703 49.416 72.1343 49.68 71.8623 49.856C71.5903 50.016 71.3343 50.096 71.0943 50.096C70.7423 50.096 70.4223 49.992 70.1343 49.784C69.8463 49.56 69.7023 49.312 69.7023 49.04C69.8143 47.84 69.8703 45.832 69.8703 43.016C69.8703 42.504 69.8303 40.608 69.7503 37.328L69.6783 35.12C69.6783 34.768 69.8383 34.464 70.1583 34.208C70.4783 33.936 70.8383 33.8 71.2383 33.8C71.5903 33.8 71.8463 33.88 72.0063 34.04C72.1663 34.2 72.2463 34.448 72.2463 34.784ZM82.0164 44.504C82.0164 43.528 82.2324 42.72 82.6644 42.08C83.0964 41.424 83.6964 40.808 84.4644 40.232C84.6884 40.072 85.0644 39.936 85.5924 39.824C86.1204 39.696 86.5844 39.632 86.9844 39.632C87.4644 39.632 87.9684 39.736 88.4964 39.944C89.0404 40.136 89.4804 40.36 89.8164 40.616C90.4084 41.048 90.8164 41.552 91.0404 42.128C91.2644 42.688 91.3764 43.36 91.3764 44.144C91.3764 44.48 91.1844 44.808 90.8004 45.128C90.4324 45.432 90.0324 45.584 89.6004 45.584L88.6884 45.56C88.2244 45.56 87.5604 45.576 86.6964 45.608L86.1924 45.632C85.8404 45.664 85.5764 45.68 85.4004 45.68C85.1444 45.68 84.7924 45.648 84.3444 45.584C84.4084 46.336 84.6884 46.928 85.1844 47.36C85.6804 47.776 86.2164 47.984 86.7924 47.984C87.8004 47.984 88.5044 47.784 88.9044 47.384C89.2404 47.144 89.4644 46.992 89.5764 46.928C89.6884 46.864 89.8644 46.832 90.1044 46.832C90.3604 46.832 90.5844 46.952 90.7764 47.192C90.9684 47.432 91.0644 47.672 91.0644 47.912C91.0644 48.184 90.8964 48.464 90.5604 48.752C90.2404 49.024 89.8004 49.312 89.2404 49.616C88.9364 49.744 88.5204 49.856 87.9924 49.952C87.4644 50.048 87.0244 50.096 86.6724 50.096C86.1124 50.096 85.4884 49.936 84.8004 49.616C84.1124 49.28 83.6004 48.912 83.2644 48.512C82.9284 48.112 82.6324 47.544 82.3764 46.808C82.1364 46.072 82.0164 45.304 82.0164 44.504ZM86.7924 43.856C87.9284 43.856 88.7604 43.816 89.2884 43.736C89.2564 43.272 89.1124 42.896 88.8564 42.608C88.6004 42.304 88.2484 42.048 87.8004 41.84C87.6564 41.776 87.5284 41.728 87.4164 41.696C87.3044 41.664 87.1764 41.648 87.0324 41.648C86.2964 41.648 85.6724 41.848 85.1604 42.248C84.6644 42.648 84.3684 43.16 84.2724 43.784C85.0724 43.832 85.9124 43.856 86.7924 43.856ZM93.743 41.576C93.327 41.288 93.119 40.984 93.119 40.664C93.119 40.44 93.215 40.232 93.407 40.04C93.599 39.848 93.887 39.752 94.271 39.752C94.719 39.752 95.119 39.872 95.471 40.112C95.839 40.336 96.095 40.664 96.239 41.096C96.607 40.664 97.023 40.32 97.487 40.064C97.967 39.808 98.455 39.68 98.951 39.68C99.543 39.68 100.079 39.84 100.559 40.16C101.039 40.48 101.279 40.912 101.279 41.456C101.279 41.76 101.143 42.072 100.871 42.392C100.615 42.712 100.351 42.872 100.079 42.872C99.935 42.872 99.807 42.84 99.695 42.776C99.599 42.696 99.479 42.584 99.335 42.44C99.175 42.28 99.039 42.168 98.927 42.104C98.815 42.024 98.687 41.984 98.543 41.984C98.287 41.984 98.047 42.024 97.823 42.104C97.599 42.184 97.447 42.28 97.367 42.392C97.111 42.792 96.919 43.152 96.791 43.472C96.679 43.792 96.623 44.136 96.623 44.504C96.623 44.776 96.615 44.992 96.599 45.152L96.575 46.52C96.575 46.728 96.583 46.96 96.599 47.216C96.615 47.472 96.631 47.664 96.647 47.792C96.695 48.224 96.719 48.64 96.719 49.04C96.719 49.312 96.615 49.552 96.407 49.76C96.199 49.968 95.943 50.072 95.639 50.072C95.159 50.072 94.807 49.984 94.583 49.808C94.359 49.616 94.247 49.272 94.247 48.776L94.223 47.24C94.207 46.936 94.199 46.504 94.199 45.944L94.223 44.36C94.255 43.592 94.271 42.968 94.271 42.488C94.271 42.312 94.231 42.152 94.151 42.008C94.087 41.864 93.951 41.72 93.743 41.576ZM102.502 44.576C102.502 44 102.606 43.464 102.814 42.968C103.022 42.456 103.326 41.928 103.726 41.384C104.126 40.84 104.678 40.416 105.382 40.112C106.086 39.792 106.854 39.632 107.686 39.632C108.326 39.632 108.942 39.768 109.534 40.04C110.142 40.296 110.686 40.616 111.166 41C111.23 41.112 111.342 41.32 111.502 41.624C111.662 41.912 111.774 42.176 111.838 42.416C111.918 42.656 111.958 42.904 111.958 43.16C111.958 44.232 111.566 44.952 110.782 45.32C109.998 45.672 109.006 45.848 107.806 45.848C106.606 45.848 105.63 45.768 104.878 45.608C104.91 45.912 104.99 46.216 105.118 46.52C105.246 46.824 105.398 47.056 105.574 47.216C105.894 47.52 106.206 47.72 106.51 47.816C106.83 47.896 107.254 47.936 107.782 47.936C108.582 47.936 109.206 47.784 109.654 47.48C110.07 47.208 110.39 47.072 110.614 47.072C110.918 47.072 111.15 47.168 111.31 47.36C111.47 47.536 111.55 47.768 111.55 48.056C111.55 48.664 111.158 49.16 110.374 49.544C109.606 49.928 108.734 50.12 107.758 50.12C106.99 50.12 106.23 49.984 105.478 49.712C104.726 49.44 104.126 49.056 103.678 48.56C103.374 48.048 103.102 47.424 102.862 46.688C102.622 45.952 102.502 45.248 102.502 44.576ZM107.782 41.6C107.43 41.6 107.062 41.664 106.678 41.792C106.31 41.904 106.022 42.08 105.814 42.32C105.558 42.592 105.366 42.84 105.238 43.064C105.126 43.288 105.054 43.568 105.022 43.904C105.198 43.904 105.366 43.912 105.526 43.928C105.686 43.944 105.838 43.96 105.982 43.976C106.686 44.04 107.214 44.072 107.566 44.072C108.27 44.072 108.806 43.968 109.174 43.76C109.558 43.552 109.75 43.272 109.75 42.92C109.75 42.584 109.534 42.28 109.102 42.008C108.686 41.736 108.246 41.6 107.782 41.6ZM126.263 36.68C126.103 36.68 125.967 36.648 125.855 36.584C125.759 36.504 125.639 36.384 125.495 36.224C125.351 36.064 125.207 35.944 125.063 35.864C124.935 35.768 124.767 35.72 124.559 35.72C124.399 35.72 124.231 35.84 124.055 36.08C123.879 36.304 123.759 36.664 123.695 37.16C123.583 38.2 123.527 39.04 123.527 39.68C123.895 39.728 124.455 39.752 125.207 39.752H126.047C126.335 39.752 126.559 39.808 126.719 39.92C126.879 40.032 126.959 40.216 126.959 40.472C126.959 40.84 126.847 41.144 126.623 41.384C126.399 41.624 126.135 41.744 125.831 41.744C124.823 41.744 124.047 41.72 123.503 41.672C123.455 42.552 123.431 43.504 123.431 44.528C123.431 45.968 123.479 47.408 123.575 48.848C123.591 49.28 123.503 49.6 123.311 49.808C123.119 50 122.807 50.096 122.375 50.096C122.119 50.096 121.927 50.04 121.799 49.928C121.671 49.816 121.575 49.696 121.511 49.568C121.463 49.424 121.399 49.176 121.319 48.824C121.191 48.168 121.127 46.936 121.127 45.128V43.136C121.127 42.688 121.151 42.168 121.199 41.576C121.071 41.576 120.831 41.576 120.479 41.576C120.143 41.56 119.839 41.52 119.567 41.456C119.423 41.408 119.279 41.288 119.135 41.096C118.991 40.904 118.919 40.672 118.919 40.4C118.919 40.24 118.975 40.088 119.087 39.944C119.199 39.8 119.335 39.696 119.495 39.632C119.591 39.584 119.703 39.56 119.831 39.56C119.943 39.56 120.055 39.576 120.167 39.608C120.295 39.624 120.415 39.632 120.527 39.632L121.247 39.656C121.247 37.48 121.495 35.952 121.991 35.072C122.471 34.24 123.263 33.824 124.367 33.824C124.719 33.824 125.135 33.896 125.615 34.04C126.111 34.168 126.535 34.368 126.887 34.64C127.255 34.896 127.439 35.208 127.439 35.576C127.439 35.848 127.319 36.104 127.079 36.344C126.855 36.568 126.583 36.68 126.263 36.68ZM138.26 42.296C138.388 42.52 138.492 42.848 138.572 43.28C138.652 43.696 138.692 44.072 138.692 44.408C138.692 45.032 138.556 45.92 138.284 47.072C137.18 49.088 135.548 50.096 133.388 50.096C132.588 50.096 131.772 49.832 130.94 49.304C130.108 48.776 129.532 48.168 129.212 47.48C128.78 46.104 128.564 45.232 128.564 44.864C128.564 44.224 128.7 43.544 128.972 42.824C129.26 42.104 129.62 41.48 130.052 40.952C130.324 40.584 130.812 40.272 131.516 40.016C132.22 39.744 132.86 39.608 133.436 39.608C134.556 39.608 135.508 39.824 136.292 40.256C137.076 40.672 137.732 41.352 138.26 42.296ZM136.172 46.16C136.252 45.952 136.292 45.416 136.292 44.552C136.292 44.088 136.204 43.632 136.028 43.184C135.868 42.736 135.628 42.352 135.308 42.032C135.276 42 135.188 41.952 135.044 41.888C134.9 41.808 134.7 41.736 134.444 41.672C134.204 41.592 133.924 41.552 133.604 41.552C132.708 41.552 132.052 41.912 131.636 42.632C131.22 43.352 131.012 44.168 131.012 45.08C131.012 45.24 131.052 45.544 131.132 45.992C131.228 46.44 131.308 46.72 131.372 46.832C131.42 46.944 131.54 47.104 131.732 47.312C131.94 47.504 132.188 47.68 132.476 47.84C132.78 47.984 133.092 48.056 133.412 48.056C134.132 48.056 134.708 47.888 135.14 47.552C135.572 47.2 135.916 46.736 136.172 46.16ZM144.59 49.04C144.59 49.312 144.486 49.552 144.278 49.76C144.07 49.968 143.814 50.072 143.51 50.072C143.03 50.072 142.678 49.984 142.454 49.808C142.23 49.616 142.118 49.272 142.118 48.776C142.118 48.184 142.102 47.408 142.07 46.448C142.038 45.648 142.022 44.976 142.022 44.432C142.022 44.176 142.038 43.84 142.07 43.424C142.102 43.04 142.118 42.752 142.118 42.56C142.07 42.256 141.95 42.008 141.758 41.816C141.566 41.608 141.318 41.504 141.014 41.504C140.87 41.504 140.75 41.44 140.654 41.312C140.558 41.168 140.51 41.024 140.51 40.88C140.51 40.512 140.654 40.232 140.942 40.04C141.246 39.848 141.606 39.752 142.022 39.752C142.886 39.752 143.486 40.264 143.822 41.288C144.238 40.808 144.71 40.424 145.238 40.136C145.782 39.832 146.302 39.68 146.798 39.68C147.39 39.68 147.926 39.84 148.406 40.16C148.902 40.48 149.15 40.912 149.15 41.456C149.15 41.76 149.014 42.072 148.742 42.392C148.486 42.712 148.222 42.872 147.95 42.872C147.806 42.872 147.678 42.84 147.566 42.776C147.47 42.696 147.35 42.584 147.206 42.44C147.046 42.28 146.91 42.168 146.798 42.104C146.686 42.024 146.558 41.984 146.414 41.984C146.158 41.984 145.918 42.024 145.694 42.104C145.47 42.184 145.318 42.28 145.238 42.392C144.982 42.792 144.79 43.152 144.662 43.472C144.55 43.792 144.494 44.136 144.494 44.504C144.494 44.776 144.486 44.992 144.47 45.152L144.446 46.52C144.446 46.728 144.454 46.96 144.47 47.216C144.486 47.472 144.502 47.664 144.518 47.792C144.566 48.224 144.59 48.64 144.59 49.04ZM165.903 49.88C165.567 49.88 165.247 49.784 164.943 49.592C164.655 49.384 164.399 49.168 164.175 48.944C163.951 48.704 163.799 48.544 163.719 48.464C163.383 48.944 162.895 49.336 162.255 49.64C161.615 49.944 160.999 50.096 160.407 50.096C159.495 50.096 158.687 49.904 157.983 49.52C157.279 49.136 156.735 48.616 156.351 47.96C155.967 47.288 155.775 46.544 155.775 45.728C155.775 44.96 155.863 44.224 156.039 43.52C156.231 42.8 156.487 42.2 156.807 41.72C157.239 41.112 157.815 40.632 158.535 40.28C159.271 39.928 159.999 39.752 160.719 39.752C161.151 39.752 161.559 39.832 161.943 39.992C162.327 40.152 162.663 40.352 162.951 40.592C162.951 39.536 162.943 38.872 162.927 38.6V38.072C162.927 36.568 163.023 35.472 163.215 34.784C163.391 34.112 163.823 33.776 164.511 33.776C164.879 33.776 165.151 33.856 165.327 34.016C165.503 34.176 165.591 34.48 165.591 34.928C165.591 35.088 165.551 35.528 165.471 36.248C165.295 38.04 165.207 39.832 165.207 41.624C165.207 43.128 165.231 44.248 165.279 44.984C165.343 45.704 165.463 46.28 165.639 46.712C165.831 47.144 166.127 47.528 166.527 47.864C166.767 48.056 166.935 48.216 167.031 48.344C167.143 48.472 167.199 48.64 167.199 48.848C167.199 49.104 167.071 49.344 166.815 49.568C166.559 49.776 166.255 49.88 165.903 49.88ZM160.335 48.152C161.183 48.152 161.807 47.888 162.207 47.36C162.623 46.816 162.831 46.128 162.831 45.296L162.807 43.952C162.791 43.696 162.783 43.352 162.783 42.92C162.191 42.216 161.551 41.864 160.863 41.864C160.399 41.864 159.959 41.984 159.543 42.224C159.143 42.464 158.815 42.816 158.559 43.28C158.287 43.808 158.151 44.608 158.151 45.68C158.151 46.416 158.367 47.016 158.799 47.48C159.231 47.928 159.743 48.152 160.335 48.152ZM168.571 44.504C168.571 43.528 168.787 42.72 169.219 42.08C169.651 41.424 170.251 40.808 171.019 40.232C171.243 40.072 171.619 39.936 172.147 39.824C172.675 39.696 173.139 39.632 173.539 39.632C174.019 39.632 174.523 39.736 175.051 39.944C175.595 40.136 176.035 40.36 176.371 40.616C176.963 41.048 177.371 41.552 177.595 42.128C177.819 42.688 177.931 43.36 177.931 44.144C177.931 44.48 177.739 44.808 177.355 45.128C176.987 45.432 176.587 45.584 176.155 45.584L175.243 45.56C174.779 45.56 174.115 45.576 173.251 45.608L172.747 45.632C172.395 45.664 172.131 45.68 171.955 45.68C171.699 45.68 171.347 45.648 170.899 45.584C170.963 46.336 171.243 46.928 171.739 47.36C172.235 47.776 172.771 47.984 173.347 47.984C174.355 47.984 175.059 47.784 175.459 47.384C175.795 47.144 176.019 46.992 176.131 46.928C176.243 46.864 176.419 46.832 176.659 46.832C176.915 46.832 177.139 46.952 177.331 47.192C177.523 47.432 177.619 47.672 177.619 47.912C177.619 48.184 177.451 48.464 177.115 48.752C176.795 49.024 176.355 49.312 175.795 49.616C175.491 49.744 175.075 49.856 174.547 49.952C174.019 50.048 173.579 50.096 173.227 50.096C172.667 50.096 172.043 49.936 171.355 49.616C170.667 49.28 170.155 48.912 169.819 48.512C169.483 48.112 169.187 47.544 168.931 46.808C168.691 46.072 168.571 45.304 168.571 44.504ZM173.347 43.856C174.483 43.856 175.315 43.816 175.843 43.736C175.811 43.272 175.667 42.896 175.411 42.608C175.155 42.304 174.803 42.048 174.355 41.84C174.211 41.776 174.083 41.728 173.971 41.696C173.859 41.664 173.731 41.648 173.587 41.648C172.851 41.648 172.227 41.848 171.715 42.248C171.219 42.648 170.923 43.16 170.827 43.784C171.627 43.832 172.467 43.856 173.347 43.856ZM180.25 41.696C180.026 41.664 179.842 41.568 179.698 41.408C179.57 41.248 179.506 41.056 179.506 40.832C179.506 40.72 179.53 40.6 179.578 40.472C179.642 40.344 179.73 40.232 179.842 40.136C180.05 39.96 180.33 39.792 180.682 39.632C181.05 39.488 181.314 39.312 181.474 39.104C181.634 38.896 181.714 38.504 181.714 37.928C181.714 37.688 181.698 37.48 181.666 37.304C181.65 37.128 181.642 36.992 181.642 36.896C181.642 36.544 181.77 36.28 182.026 36.104C182.282 35.928 182.578 35.84 182.914 35.84C183.33 35.84 183.61 35.944 183.754 36.152C183.914 36.36 183.994 36.744 183.994 37.304C183.994 37.848 183.97 38.32 183.922 38.72C183.874 39.104 183.77 39.448 183.61 39.752C183.834 39.752 184.202 39.736 184.714 39.704C185.418 39.672 185.906 39.656 186.178 39.656C186.45 39.656 186.69 39.728 186.898 39.872C187.106 40 187.21 40.184 187.21 40.424C187.21 40.76 187.138 41.008 186.994 41.168C186.85 41.328 186.642 41.432 186.37 41.48C185.714 41.656 184.786 41.76 183.586 41.792C183.554 42.416 183.538 43.096 183.538 43.832C183.538 45.064 183.61 46.008 183.754 46.664C183.85 47.176 184.01 47.552 184.234 47.792C184.474 48.016 184.826 48.128 185.29 48.128C185.53 48.128 185.722 48.096 185.866 48.032C186.026 47.968 186.114 47.928 186.13 47.912C186.322 47.8 186.498 47.744 186.658 47.744C186.882 47.744 187.042 47.816 187.138 47.96C187.25 48.104 187.306 48.296 187.306 48.536C187.306 48.984 187.066 49.36 186.586 49.664C186.106 49.952 185.49 50.096 184.738 50.096C183.89 50.096 183.17 49.848 182.578 49.352C182.002 48.84 181.658 48.168 181.546 47.336C181.386 46.584 181.306 45.528 181.306 44.168C181.306 43.576 181.338 42.784 181.402 41.792L180.25 41.696ZM200.121 48.848C200.121 49.2 199.929 49.496 199.545 49.736C199.161 49.976 198.809 50.096 198.489 50.096C197.897 50.096 197.417 50.024 197.049 49.88C196.697 49.72 196.361 49.432 196.041 49.016C195.641 49.384 195.081 49.664 194.361 49.856C193.641 50.032 192.977 50.12 192.369 50.12C191.377 50.12 190.553 49.856 189.897 49.328C189.257 48.784 188.937 47.992 188.937 46.952C188.937 46.504 189.073 46.056 189.345 45.608C189.617 45.144 189.953 44.776 190.353 44.504C190.785 44.216 191.273 44.024 191.817 43.928C192.361 43.816 192.993 43.76 193.713 43.76C194.049 43.76 194.449 43.824 194.913 43.952C195.377 44.08 195.745 44.216 196.017 44.36V43.976C196.017 43.112 195.801 42.52 195.369 42.2C194.953 41.864 194.281 41.696 193.353 41.696C193.065 41.696 192.801 41.744 192.561 41.84C192.337 41.92 192.073 42.04 191.769 42.2C191.481 42.36 191.209 42.44 190.953 42.44C190.729 42.44 190.513 42.352 190.305 42.176C190.097 41.984 189.993 41.784 189.993 41.576C189.993 40.904 190.409 40.416 191.241 40.112C192.089 39.792 192.953 39.632 193.833 39.632C194.281 39.632 194.793 39.728 195.369 39.92C195.945 40.096 196.433 40.344 196.833 40.664C197.313 41.064 197.681 41.544 197.937 42.104C198.209 42.664 198.345 43.272 198.345 43.928C198.345 44.136 198.329 44.448 198.297 44.864C198.265 45.312 198.249 45.696 198.249 46.016L198.225 46.664C198.193 47.016 198.177 47.296 198.177 47.504C198.177 47.696 198.241 47.864 198.369 48.008C198.513 48.136 198.681 48.2 198.873 48.2L199.545 48.176C199.721 48.176 199.857 48.248 199.953 48.392C200.065 48.52 200.121 48.672 200.121 48.848ZM192.369 48.224C193.057 48.224 193.633 48.152 194.097 48.008C194.561 47.864 195.121 47.6 195.777 47.216C195.841 46.944 195.881 46.584 195.897 46.136C195.017 45.72 194.289 45.512 193.713 45.512C193.169 45.512 192.729 45.536 192.393 45.584C192.057 45.616 191.753 45.752 191.481 45.992C191.209 46.232 191.073 46.616 191.073 47.144C191.073 47.448 191.217 47.704 191.505 47.912C191.809 48.12 192.097 48.224 192.369 48.224ZM202.894 34.592C203.454 34.64 203.942 34.792 204.358 35.048C204.774 35.288 204.982 35.656 204.982 36.152C204.982 36.52 204.806 36.816 204.454 37.04C204.118 37.248 203.71 37.352 203.23 37.352C202.766 37.352 202.446 37.232 202.27 36.992C202.094 36.752 202.006 36.504 202.006 36.248C202.006 35.768 202.054 35.368 202.15 35.048C202.262 34.728 202.51 34.576 202.894 34.592ZM204.814 45.224V45.92C204.814 46.544 204.83 47.136 204.862 47.696C204.91 48.24 204.966 48.792 205.03 49.352C205.014 49.512 204.894 49.68 204.67 49.856C204.446 50.016 204.246 50.096 204.07 50.096C203.766 50.096 203.454 50.04 203.134 49.928C202.83 49.8 202.646 49.648 202.582 49.472C202.486 48.96 202.438 48.504 202.438 48.104C202.438 46.792 202.398 45.32 202.318 43.688C202.254 42.248 202.222 41.24 202.222 40.664C202.222 40.376 202.366 40.128 202.654 39.92C202.942 39.712 203.246 39.608 203.566 39.608C204.03 39.608 204.35 39.712 204.526 39.92C204.718 40.128 204.814 40.456 204.814 40.904V45.224ZM210.499 46.28C210.499 46.888 210.587 47.36 210.763 47.696C210.955 48.016 211.195 48.176 211.483 48.176C211.643 48.176 211.795 48.168 211.939 48.152C212.083 48.12 212.227 48.104 212.371 48.104C212.531 48.104 212.667 48.184 212.779 48.344C212.907 48.504 212.971 48.68 212.971 48.872C212.971 49.256 212.787 49.56 212.419 49.784C212.067 49.992 211.587 50.096 210.979 50.096C210.547 50.096 210.107 49.968 209.659 49.712C209.227 49.44 208.867 49.024 208.579 48.464C208.291 47.888 208.147 47.176 208.147 46.328C208.147 44.504 208.179 42.96 208.243 41.696C208.323 40.192 208.363 38.296 208.363 36.008C208.363 35.288 208.403 34.784 208.483 34.496C208.579 34.272 208.731 34.104 208.939 33.992C209.163 33.864 209.395 33.8 209.635 33.8C209.875 33.8 210.083 33.84 210.259 33.92C210.451 34 210.579 34.128 210.643 34.304C210.707 34.496 210.747 34.688 210.763 34.88C210.795 35.056 210.811 35.312 210.811 35.648C210.811 36.304 210.787 36.936 210.739 37.544C210.707 38.28 210.691 38.816 210.691 39.152C210.563 41.968 210.499 44.344 210.499 46.28ZM221.328 44.816C221.456 44.896 221.704 45.048 222.072 45.272C222.456 45.48 222.712 45.728 222.84 46.016C222.968 46.304 223.032 46.704 223.032 47.216C223.032 47.792 222.864 48.304 222.528 48.752C222.192 49.184 221.76 49.52 221.232 49.76C220.864 49.92 220.464 50.016 220.032 50.048C219.616 50.08 219.112 50.096 218.52 50.096C218.2 50.096 217.784 50.048 217.272 49.952C216.776 49.856 216.432 49.768 216.24 49.688C215.728 49.4 215.296 49.064 214.944 48.68C214.592 48.296 214.416 47.904 214.416 47.504C214.416 47.184 214.52 46.928 214.728 46.736C214.936 46.544 215.208 46.448 215.544 46.448C215.72 46.448 215.888 46.496 216.048 46.592C216.224 46.672 216.344 46.768 216.408 46.88C216.584 47.296 216.88 47.608 217.296 47.816C217.712 48.024 218.136 48.128 218.568 48.128C220.088 48.128 220.848 47.856 220.848 47.312C220.848 47.168 220.808 47.056 220.728 46.976C220.664 46.88 220.568 46.784 220.44 46.688C220.232 46.544 219.936 46.392 219.552 46.232C219.184 46.072 218.856 45.952 218.568 45.872C217.912 45.728 217.272 45.512 216.648 45.224C216.072 44.936 215.6 44.56 215.232 44.096C214.864 43.616 214.68 43.032 214.68 42.344C214.68 41.928 214.832 41.52 215.136 41.12C215.456 40.704 215.824 40.392 216.24 40.184C216.528 40.072 217 39.952 217.656 39.824C218.312 39.696 218.76 39.632 219 39.632C219.368 39.632 219.768 39.672 220.2 39.752C220.632 39.816 220.96 39.928 221.184 40.088C221.616 40.344 221.968 40.616 222.24 40.904C222.512 41.176 222.648 41.488 222.648 41.84C222.648 42.016 222.608 42.208 222.528 42.416C222.448 42.608 222.352 42.728 222.24 42.776C222 42.888 221.72 42.944 221.4 42.944C221.256 42.944 221.136 42.904 221.04 42.824C220.96 42.744 220.848 42.616 220.704 42.44C220.528 42.168 220.36 42.008 220.2 41.96C220.008 41.912 219.728 41.856 219.36 41.792C218.992 41.712 218.744 41.672 218.616 41.672C218.216 41.672 217.832 41.752 217.464 41.912C217.112 42.072 216.936 42.288 216.936 42.56C216.936 42.88 217.2 43.152 217.728 43.376C218.064 43.536 218.432 43.672 218.832 43.784C219.248 43.896 219.504 43.968 219.6 44C219.824 44.048 220.112 44.16 220.464 44.336C220.832 44.512 221.12 44.672 221.328 44.816Z" fill="white"/>
</svg>
