<svg width="90" height="126" viewBox="0 0 90 126" fill="none" xmlns="http://www.w3.org/2000/svg">
<circle cx="45" cy="45" r="45" fill="#4C4FFB"/>
<path d="M35.6667 44.1787V63.6667C35.6667 64.9044 36.1584 66.0914 37.0335 66.9665C37.9087 67.8417 39.0957 68.3334 40.3334 68.3334H49.6667C50.9044 68.3334 52.0914 67.8417 52.9665 66.9665C53.8417 66.0914 54.3334 64.9044 54.3334 63.6667V44.1787C56.823 42.8907 61.3334 39.68 61.3334 33.3334V28.6667H28.6667V33.3334C28.6667 39.68 33.177 42.8907 35.6667 44.1787ZM42.6667 42.6667H47.3334V49.6667H42.6667V42.6667ZM28.6667 21.6667H61.3334V26.3334H28.6667V21.6667Z" fill="white"/>
</svg>
