<svg width="90" height="124" viewBox="0 0 90 124" fill="none" xmlns="http://www.w3.org/2000/svg">
<circle cx="45" cy="45" r="45" fill="#4C4FFB"/>
<path fill-rule="evenodd" clip-rule="evenodd" d="M45.1682 22H45.4152C50.418 22 54.3375 22 57.3968 22.4117C60.5255 22.832 62.9955 23.7117 64.9347 25.6487C66.8738 27.5878 67.7513 30.0578 68.1717 33.1887C68.5833 36.2458 68.5833 40.1653 68.5833 45.1682V45.3588C68.5833 49.495 68.5833 52.8793 68.358 55.6353C68.1327 58.4087 67.6712 60.7205 66.6355 62.6445C66.1805 63.4917 65.6172 64.2522 64.9347 64.9347C62.9955 66.8738 60.5255 67.7513 57.3947 68.1717C54.3375 68.5833 50.418 68.5833 45.4152 68.5833H45.1682C40.1653 68.5833 36.2458 68.5833 33.1865 68.1717C30.0578 67.7513 27.5878 66.8717 25.6487 64.9347C23.9305 63.2165 23.0422 61.078 22.572 58.4217C22.1062 55.8152 22.0217 52.5717 22.0043 48.546C22 47.5212 22 46.4378 22 45.2938V45.1682C22 40.1653 22 36.2458 22.4117 33.1865C22.832 30.0578 23.7117 27.5878 25.6487 25.6487C27.5878 23.7095 30.0578 22.832 33.1887 22.4117C36.2458 22 40.1653 22 45.1682 22ZM33.6198 25.6313C30.8508 26.004 29.1803 26.7147 27.9475 27.9475C26.7125 29.1825 26.004 30.8508 25.6313 33.622C25.2543 36.4387 25.25 40.1393 25.25 45.2917V47.1203L27.4188 45.2223C28.3702 44.3896 29.6024 43.9495 30.8661 43.9914C32.1297 44.0332 33.3302 44.5538 34.2243 45.4477L43.5193 54.7427C44.2406 55.4638 45.1932 55.9074 46.2094 55.9954C47.2255 56.0834 48.2402 55.8101 49.0747 55.2237L49.7203 54.7687C50.9243 53.9227 52.3797 53.5102 53.8486 53.5988C55.3174 53.6873 56.7127 54.2716 57.8063 55.2562L63.938 60.7747C64.5577 59.479 64.9238 57.776 65.1188 55.3732C65.3312 52.7623 65.3333 49.508 65.3333 45.2917C65.3333 40.1393 65.329 36.4387 64.952 33.622C64.5793 30.8508 63.8687 29.1803 62.6358 27.9453C61.4008 26.7125 59.7325 26.004 56.9613 25.6313C54.1447 25.2543 50.444 25.25 45.2917 25.25C40.1393 25.25 36.4365 25.2543 33.6198 25.6313Z" fill="white"/>
</svg>
