<svg width="199" height="250" viewBox="0 0 199 250" fill="none" xmlns="http://www.w3.org/2000/svg">
    <rect width="199" height="199" rx="32" fill="#4C4FFB"/>
    <path d="M22.7969 246C22.4323 246 22.25 245.805 22.25 245.414V235.383C22.25 234.992 22.4323 234.797 22.7969 234.797H25.0625C25.3646 234.797 25.5807 235.005 25.7109 235.422L27.8281 242.273C27.9219 242.57 27.987 242.815 28.0234 243.008C28.0599 243.195 28.0911 243.419 28.1172 243.68H28.1641C28.1901 243.419 28.2214 243.195 28.2578 243.008C28.2943 242.815 28.3594 242.57 28.4531 242.273L30.5703 235.422C30.7005 235.005 30.9167 234.797 31.2188 234.797H33.4844C33.849 234.797 34.0312 234.992 34.0312 235.383V245.414C34.0312 245.805 33.849 246 33.4844 246H32.2969C31.9323 246 31.75 245.805 31.75 245.414V238.961C31.75 238.648 31.763 238.336 31.7891 238.023H31.7344L29.4766 245.367C29.3464 245.789 29.1224 246 28.8047 246H27.4766C27.1589 246 26.9349 245.789 26.8047 245.367L24.5469 238.023H24.4922C24.5182 238.336 24.5312 238.648 24.5312 238.961V245.414C24.5312 245.805 24.349 246 23.9844 246H22.7969ZM35.9062 241.898C35.9062 240.581 36.2344 239.542 36.8906 238.781C37.5521 238.021 38.4844 237.641 39.6875 237.641C41.0833 237.641 42.1198 238 42.7969 238.719C43.474 239.438 43.8125 240.594 43.8125 242.188C43.8125 242.5 43.6667 242.656 43.375 242.656H38.2188C38.3021 243.521 38.5156 244.065 38.8594 244.289C39.2031 244.513 39.6016 244.625 40.0547 244.625C40.487 244.625 40.8177 244.568 41.0469 244.453C41.276 244.339 41.4688 244.182 41.625 243.984C41.8021 243.755 42.0208 243.719 42.2812 243.875L43.0625 244.352C43.3698 244.539 43.4141 244.763 43.1953 245.023C42.8776 245.404 42.5052 245.688 42.0781 245.875C41.651 246.062 40.9766 246.156 40.0547 246.156C38.5599 246.156 37.4948 245.776 36.8594 245.016C36.224 244.255 35.9062 243.216 35.9062 241.898ZM38.2266 241.094H41.625C41.625 240.531 41.4844 240.073 41.2031 239.719C40.9219 239.359 40.474 239.18 39.8594 239.18C39.3698 239.18 38.9818 239.352 38.6953 239.695C38.4089 240.034 38.2526 240.5 38.2266 241.094ZM45.0781 241.898C45.0781 240.753 45.3255 239.758 45.8203 238.914C46.3203 238.065 47.1823 237.641 48.4062 237.641C48.875 237.641 49.276 237.708 49.6094 237.844C49.9427 237.979 50.2448 238.271 50.5156 238.719H50.5469C50.526 238.51 50.5156 238.302 50.5156 238.094V234.938C50.5156 234.625 50.6719 234.469 50.9844 234.469H52.2344C52.5469 234.469 52.7031 234.625 52.7031 234.938V245.531C52.7031 245.844 52.5469 246 52.2344 246H51C50.7396 246 50.599 245.844 50.5781 245.531L50.5469 245.078H50.5156C50.2448 245.526 49.9427 245.818 49.6094 245.953C49.276 246.089 48.875 246.156 48.4062 246.156C47.1823 246.156 46.3203 245.734 45.8203 244.891C45.3255 244.042 45.0781 243.044 45.0781 241.898ZM47.3906 241.898C47.3906 242.732 47.4974 243.396 47.7109 243.891C47.9297 244.38 48.3906 244.625 49.0938 244.625C49.4844 244.625 49.8177 244.406 50.0938 243.969C50.375 243.526 50.5156 242.953 50.5156 242.25V241.547C50.5156 240.844 50.375 240.273 50.0938 239.836C49.8177 239.393 49.4844 239.172 49.0938 239.172C48.3906 239.172 47.9297 239.419 47.7109 239.914C47.4974 240.404 47.3906 241.065 47.3906 241.898ZM55.2969 246C54.9844 246 54.8281 245.844 54.8281 245.531V238.266C54.8281 237.953 54.9844 237.797 55.2969 237.797H56.5469C56.8594 237.797 57.0156 237.953 57.0156 238.266V245.531C57.0156 245.844 56.8594 246 56.5469 246H55.2969ZM55.2969 236.594C54.9844 236.594 54.8281 236.438 54.8281 236.125V235.125C54.8281 234.812 54.9844 234.656 55.2969 234.656H56.5469C56.8594 234.656 57.0156 234.812 57.0156 235.125V236.125C57.0156 236.438 56.8594 236.594 56.5469 236.594H55.2969ZM58.9766 245.453C58.7214 245.271 58.651 245.076 58.7656 244.867L59.1641 244.141C59.3047 243.88 59.5234 243.849 59.8203 244.047C60.1172 244.245 60.4661 244.391 60.8672 244.484C61.2734 244.578 61.6432 244.625 61.9766 244.625C62.2109 244.625 62.4297 244.602 62.6328 244.555C62.8359 244.508 63.0078 244.417 63.1484 244.281C63.2891 244.146 63.3594 243.948 63.3594 243.688C63.3594 243.531 63.3177 243.398 63.2344 243.289C63.151 243.18 63.0443 243.096 62.9141 243.039C62.7839 242.982 62.6458 242.935 62.5 242.898C62.3073 242.852 62.0286 242.773 61.6641 242.664C61.3047 242.555 60.9583 242.427 60.625 242.281C60.349 242.161 60.0781 241.995 59.8125 241.781C59.5521 241.562 59.3594 241.32 59.2344 241.055C59.1146 240.789 59.0547 240.461 59.0547 240.07C59.0547 239.544 59.2057 239.083 59.5078 238.688C59.8151 238.292 60.2109 238.018 60.6953 237.867C61.1797 237.716 61.7839 237.641 62.5078 237.641C62.9974 237.641 63.474 237.711 63.9375 237.852C64.401 237.992 64.7318 238.125 64.9297 238.25C65.2422 238.448 65.3203 238.659 65.1641 238.883L64.6875 239.578C64.5417 239.786 64.3073 239.802 63.9844 239.625C63.7396 239.49 63.4974 239.38 63.2578 239.297C63.0234 239.214 62.7604 239.172 62.4688 239.172C62.2708 239.172 62.0807 239.193 61.8984 239.234C61.7161 239.276 61.5599 239.354 61.4297 239.469C61.3047 239.583 61.2422 239.734 61.2422 239.922C61.2422 240.12 61.2995 240.276 61.4141 240.391C61.5339 240.5 61.6693 240.581 61.8203 240.633C61.9766 240.685 62.125 240.734 62.2656 240.781C62.5573 240.875 62.8516 240.966 63.1484 241.055C63.4453 241.138 63.7474 241.24 64.0547 241.359C64.3203 241.464 64.5781 241.612 64.8281 241.805C65.0781 241.997 65.2604 242.242 65.375 242.539C65.4896 242.836 65.5469 243.174 65.5469 243.555C65.5469 244.06 65.3958 244.529 65.0938 244.961C64.7917 245.393 64.3932 245.701 63.8984 245.883C63.4036 246.065 62.8281 246.156 62.1719 246.156C61.4375 246.156 60.8125 246.104 60.2969 246C59.7812 245.896 59.3411 245.714 58.9766 245.453ZM66.4922 238.406C66.3516 238 66.4375 237.797 66.75 237.797H68.1484C68.388 237.797 68.5443 237.93 68.6172 238.195L69.7969 242.562C69.8542 242.766 69.9036 243.029 69.9453 243.352C69.9922 243.669 70.0156 243.872 70.0156 243.961H70.0625C70.125 243.685 70.1693 243.466 70.1953 243.305C70.2266 243.138 70.3073 242.818 70.4375 242.344L71.5547 238.195C71.6276 237.93 71.7839 237.797 72.0234 237.797H73.4219C73.7292 237.797 73.8151 238 73.6797 238.406L71.0469 246.328C70.7396 247.255 70.362 247.979 69.9141 248.5C69.4661 249.021 68.8438 249.281 68.0469 249.281C67.6094 249.281 67.2188 249.245 66.875 249.172C66.6771 249.13 66.6016 248.995 66.6484 248.766L66.8203 247.906C66.8672 247.682 67 247.604 67.2188 247.672C67.3802 247.724 67.5312 247.75 67.6719 247.75C68.0938 247.75 68.4141 247.549 68.6328 247.148C68.8568 246.747 69.0052 246.404 69.0781 246.117L69.1016 246L66.4922 238.406ZM75.2031 246C74.8906 246 74.7344 245.844 74.7344 245.531V238.266C74.7344 237.953 74.8906 237.797 75.2031 237.797H76.4375C76.75 237.797 76.9062 237.953 76.9062 238.266V238.719H76.9375C77.1771 238.307 77.4818 238.026 77.8516 237.875C78.2214 237.719 78.6667 237.641 79.1875 237.641C80 237.641 80.6719 237.896 81.2031 238.406C81.7344 238.917 82 239.849 82 241.203V245.531C82 245.844 81.8438 246 81.5312 246H80.2812C79.9688 246 79.8125 245.844 79.8125 245.531V241.766C79.8125 240.63 79.7344 239.914 79.5781 239.617C79.4219 239.32 79.0859 239.172 78.5703 239.172C78.0234 239.172 77.612 239.385 77.3359 239.812C77.0599 240.234 76.9219 241.115 76.9219 242.453V245.531C76.9219 245.844 76.7656 246 76.4531 246H75.2031ZM83.6719 241.898C83.6719 240.57 84.0052 239.529 84.6719 238.773C85.3385 238.018 86.362 237.641 87.7422 237.641C88.5495 237.641 89.1771 237.747 89.625 237.961C90.0729 238.174 90.4323 238.487 90.7031 238.898C90.8646 239.143 90.8385 239.336 90.625 239.477L89.7969 240.023C89.5625 240.18 89.3568 240.12 89.1797 239.844C89.0911 239.708 88.9219 239.562 88.6719 239.406C88.4219 239.25 88.112 239.172 87.7422 239.172C87.1536 239.172 86.7135 239.38 86.4219 239.797C86.1302 240.208 85.9844 240.909 85.9844 241.898C85.9844 242.888 86.1302 243.591 86.4219 244.008C86.7135 244.419 87.1536 244.625 87.7422 244.625C88.1641 244.625 88.5052 244.536 88.7656 244.359C89.026 244.182 89.2708 243.953 89.5 243.672C89.6979 243.432 89.9062 243.398 90.125 243.57L90.8516 244.141C91.0703 244.312 91.0833 244.542 90.8906 244.828C90.6875 245.13 90.3411 245.427 89.8516 245.719C89.3672 246.01 88.6641 246.156 87.7422 246.156C86.362 246.156 85.3385 245.779 84.6719 245.023C84.0052 244.268 83.6719 243.227 83.6719 241.898ZM93.5469 246C93.1823 246 93 245.805 93 245.414V244.367C93 243.977 93.1823 243.781 93.5469 243.781H94.7344C95.099 243.781 95.2812 243.977 95.2812 244.367V245.414C95.2812 245.805 95.099 246 94.7344 246H93.5469ZM103.602 245.164C103.279 244.919 103.201 244.672 103.367 244.422L103.969 243.516C104.167 243.219 104.456 243.203 104.836 243.469C105.128 243.672 105.508 243.883 105.977 244.102C106.451 244.315 106.948 244.422 107.469 244.422C107.833 244.422 108.185 244.38 108.523 244.297C108.862 244.214 109.12 244.052 109.297 243.812C109.474 243.573 109.562 243.289 109.562 242.961C109.562 242.727 109.523 242.521 109.445 242.344C109.367 242.167 109.24 242.021 109.062 241.906C108.885 241.792 108.703 241.695 108.516 241.617C108.188 241.482 107.773 241.349 107.273 241.219C106.779 241.083 106.289 240.922 105.805 240.734C105.372 240.568 104.977 240.339 104.617 240.047C104.258 239.755 103.979 239.427 103.781 239.062C103.583 238.698 103.484 238.211 103.484 237.602C103.484 236.878 103.719 236.258 104.188 235.742C104.656 235.227 105.195 234.896 105.805 234.75C106.414 234.604 107.029 234.531 107.648 234.531C108.263 234.531 108.896 234.625 109.547 234.812C110.203 235 110.698 235.234 111.031 235.516C111.359 235.792 111.44 236.042 111.273 236.266L110.641 237.117C110.427 237.409 110.141 237.432 109.781 237.188C109.552 237.031 109.237 236.857 108.836 236.664C108.44 236.471 108.026 236.375 107.594 236.375C107.286 236.375 107.003 236.401 106.742 236.453C106.487 236.505 106.26 236.63 106.062 236.828C105.865 237.026 105.766 237.271 105.766 237.562C105.766 237.844 105.839 238.073 105.984 238.25C106.13 238.422 106.292 238.552 106.469 238.641C106.646 238.724 106.826 238.794 107.008 238.852C107.57 239.034 108.073 239.195 108.516 239.336C108.958 239.471 109.367 239.622 109.742 239.789C110.263 240.023 110.661 240.258 110.938 240.492C111.214 240.727 111.44 241.047 111.617 241.453C111.799 241.859 111.891 242.344 111.891 242.906C111.891 243.74 111.625 244.43 111.094 244.977C110.562 245.518 109.971 245.867 109.32 246.023C108.674 246.185 108.044 246.266 107.43 246.266C106.523 246.266 105.786 246.177 105.219 246C104.651 245.828 104.112 245.549 103.602 245.164ZM112.992 238.406C112.852 238 112.938 237.797 113.25 237.797H114.648C114.888 237.797 115.044 237.93 115.117 238.195L116.297 242.562C116.354 242.766 116.404 243.029 116.445 243.352C116.492 243.669 116.516 243.872 116.516 243.961H116.562C116.625 243.685 116.669 243.466 116.695 243.305C116.727 243.138 116.807 242.818 116.938 242.344L118.055 238.195C118.128 237.93 118.284 237.797 118.523 237.797H119.922C120.229 237.797 120.315 238 120.18 238.406L117.547 246.328C117.24 247.255 116.862 247.979 116.414 248.5C115.966 249.021 115.344 249.281 114.547 249.281C114.109 249.281 113.719 249.245 113.375 249.172C113.177 249.13 113.102 248.995 113.148 248.766L113.32 247.906C113.367 247.682 113.5 247.604 113.719 247.672C113.88 247.724 114.031 247.75 114.172 247.75C114.594 247.75 114.914 247.549 115.133 247.148C115.357 246.747 115.505 246.404 115.578 246.117L115.602 246L112.992 238.406ZM121.703 246C121.391 246 121.234 245.844 121.234 245.531V238.266C121.234 237.953 121.391 237.797 121.703 237.797H122.938C123.25 237.797 123.406 237.953 123.406 238.266V238.719H123.438C123.677 238.307 123.982 238.026 124.352 237.875C124.721 237.719 125.167 237.641 125.688 237.641C126.5 237.641 127.172 237.896 127.703 238.406C128.234 238.917 128.5 239.849 128.5 241.203V245.531C128.5 245.844 128.344 246 128.031 246H126.781C126.469 246 126.312 245.844 126.312 245.531V241.766C126.312 240.63 126.234 239.914 126.078 239.617C125.922 239.32 125.586 239.172 125.07 239.172C124.523 239.172 124.112 239.385 123.836 239.812C123.56 240.234 123.422 241.115 123.422 242.453V245.531C123.422 245.844 123.266 246 122.953 246H121.703ZM130.172 241.898C130.172 240.57 130.505 239.529 131.172 238.773C131.839 238.018 132.862 237.641 134.242 237.641C135.049 237.641 135.677 237.747 136.125 237.961C136.573 238.174 136.932 238.487 137.203 238.898C137.365 239.143 137.339 239.336 137.125 239.477L136.297 240.023C136.062 240.18 135.857 240.12 135.68 239.844C135.591 239.708 135.422 239.562 135.172 239.406C134.922 239.25 134.612 239.172 134.242 239.172C133.654 239.172 133.214 239.38 132.922 239.797C132.63 240.208 132.484 240.909 132.484 241.898C132.484 242.888 132.63 243.591 132.922 244.008C133.214 244.419 133.654 244.625 134.242 244.625C134.664 244.625 135.005 244.536 135.266 244.359C135.526 244.182 135.771 243.953 136 243.672C136.198 243.432 136.406 243.398 136.625 243.57L137.352 244.141C137.57 244.312 137.583 244.542 137.391 244.828C137.188 245.13 136.841 245.427 136.352 245.719C135.867 246.01 135.164 246.156 134.242 246.156C132.862 246.156 131.839 245.779 131.172 245.023C130.505 244.268 130.172 243.227 130.172 241.898ZM144.289 239.359C143.982 239.359 143.828 239.229 143.828 238.969V238.188C143.828 237.927 143.982 237.797 144.289 237.797H144.727V236.703C144.727 235.745 145 235.107 145.547 234.789C146.094 234.471 146.745 234.312 147.5 234.312C147.859 234.312 148.167 234.333 148.422 234.375C148.682 234.417 148.911 234.469 149.109 234.531C149.297 234.594 149.365 234.724 149.312 234.922L149.078 235.805C149.031 235.977 148.911 236.029 148.719 235.961C148.604 235.919 148.443 235.891 148.234 235.875C148.031 235.854 147.87 235.844 147.75 235.844C147.37 235.844 147.135 235.977 147.047 236.242C146.958 236.508 146.914 236.922 146.914 237.484V237.797H147.945C148.253 237.797 148.406 237.927 148.406 238.188V238.969C148.406 239.229 148.253 239.359 147.945 239.359H146.914V245.531C146.914 245.844 146.758 246 146.445 246H145.195C144.883 246 144.727 245.844 144.727 245.531V239.359H144.289ZM149.453 241.898C149.453 240.57 149.794 239.529 150.477 238.773C151.164 238.018 152.185 237.641 153.539 237.641C154.893 237.641 155.911 238.018 156.594 238.773C157.281 239.529 157.625 240.57 157.625 241.898C157.625 243.227 157.281 244.268 156.594 245.023C155.911 245.779 154.893 246.156 153.539 246.156C152.185 246.156 151.164 245.779 150.477 245.023C149.794 244.268 149.453 243.227 149.453 241.898ZM151.766 241.898C151.766 242.888 151.917 243.591 152.219 244.008C152.526 244.419 152.966 244.625 153.539 244.625C154.112 244.625 154.549 244.419 154.852 244.008C155.159 243.591 155.312 242.888 155.312 241.898C155.312 240.909 155.159 240.208 154.852 239.797C154.549 239.38 154.112 239.172 153.539 239.172C152.966 239.172 152.526 239.38 152.219 239.797C151.917 240.208 151.766 240.909 151.766 241.898ZM159.781 246C159.469 246 159.312 245.844 159.312 245.531V238.266C159.312 237.953 159.469 237.797 159.781 237.797H161.016C161.328 237.797 161.484 237.953 161.484 238.266V238.906H161.516C161.651 238.573 161.878 238.279 162.195 238.023C162.513 237.768 162.888 237.641 163.32 237.641C163.617 237.641 163.862 237.677 164.055 237.75C164.237 237.818 164.307 237.943 164.266 238.125L164.047 239.055C164 239.263 163.859 239.326 163.625 239.242C163.49 239.195 163.359 239.172 163.234 239.172C162.734 239.172 162.32 239.471 161.992 240.07C161.664 240.669 161.5 241.542 161.5 242.688V245.531C161.5 245.844 161.344 246 161.031 246H159.781ZM171.391 246C171.078 246 170.922 245.844 170.922 245.531V236.305C170.922 236.07 170.977 235.857 171.086 235.664L171.688 234.609C171.802 234.411 171.938 234.312 172.094 234.312H172.641C172.953 234.312 173.109 234.469 173.109 234.781V245.531C173.109 245.844 172.953 246 172.641 246H171.391ZM175.703 246C175.391 246 175.234 245.844 175.234 245.531V238.266C175.234 237.953 175.391 237.797 175.703 237.797H176.953C177.266 237.797 177.422 237.953 177.422 238.266V245.531C177.422 245.844 177.266 246 176.953 246H175.703ZM175.703 236.594C175.391 236.594 175.234 236.438 175.234 236.125V235.125C175.234 234.812 175.391 234.656 175.703 234.656H176.953C177.266 234.656 177.422 234.812 177.422 235.125V236.125C177.422 236.438 177.266 236.594 176.953 236.594H175.703ZM179.273 239.359C178.966 239.359 178.812 239.229 178.812 238.969V238.188C178.812 237.927 178.966 237.797 179.273 237.797H179.711V236.703C179.711 235.745 179.984 235.107 180.531 234.789C181.078 234.471 181.729 234.312 182.484 234.312C182.844 234.312 183.151 234.333 183.406 234.375C183.667 234.417 183.896 234.469 184.094 234.531C184.281 234.594 184.349 234.724 184.297 234.922L184.062 235.805C184.016 235.977 183.896 236.029 183.703 235.961C183.589 235.919 183.427 235.891 183.219 235.875C183.016 235.854 182.854 235.844 182.734 235.844C182.354 235.844 182.12 235.977 182.031 236.242C181.943 236.508 181.898 236.922 181.898 237.484V237.797H182.93C183.237 237.797 183.391 237.927 183.391 238.188V238.969C183.391 239.229 183.237 239.359 182.93 239.359H181.898V245.531C181.898 245.844 181.742 246 181.43 246H180.18C179.867 246 179.711 245.844 179.711 245.531V239.359H179.273ZM184.438 241.898C184.438 240.581 184.766 239.542 185.422 238.781C186.083 238.021 187.016 237.641 188.219 237.641C189.615 237.641 190.651 238 191.328 238.719C192.005 239.438 192.344 240.594 192.344 242.188C192.344 242.5 192.198 242.656 191.906 242.656H186.75C186.833 243.521 187.047 244.065 187.391 244.289C187.734 244.513 188.133 244.625 188.586 244.625C189.018 244.625 189.349 244.568 189.578 244.453C189.807 244.339 190 244.182 190.156 243.984C190.333 243.755 190.552 243.719 190.812 243.875L191.594 244.352C191.901 244.539 191.945 244.763 191.727 245.023C191.409 245.404 191.036 245.688 190.609 245.875C190.182 246.062 189.508 246.156 188.586 246.156C187.091 246.156 186.026 245.776 185.391 245.016C184.755 244.255 184.438 243.216 184.438 241.898ZM186.758 241.094H190.156C190.156 240.531 190.016 240.073 189.734 239.719C189.453 239.359 189.005 239.18 188.391 239.18C187.901 239.18 187.513 239.352 187.227 239.695C186.94 240.034 186.784 240.5 186.758 241.094ZM194.5 246C194.135 246 193.953 245.805 193.953 245.414V244.367C193.953 243.977 194.135 243.781 194.5 243.781H195.688C196.052 243.781 196.234 243.977 196.234 244.367V245.414C196.234 245.805 196.052 246 195.688 246H194.5Z" fill="black"/>
    <rect x="28" y="28" width="143" height="143" rx="20" fill="white"/>
    <path d="M53.944 110.624C52.904 110.624 52.16 110.328 51.712 109.736C51.264 109.128 51.04 108.24 51.04 107.072C51.04 105.904 51.416 103.216 52.168 99.008H51.784C50.808 100.288 50 101.816 49.36 103.592C48.72 105.368 48.328 106.968 48.184 108.392C47.4 109.128 46.496 109.496 45.472 109.496C45.056 109.496 44.688 109.352 44.368 109.064C44.064 108.76 43.76 108.24 43.456 107.504C42.864 106.016 42.44 103.184 42.184 99.008H41.8C41.016 102.448 40.624 104.872 40.624 106.28C40.624 107.688 40.864 108.776 41.344 109.544C40.384 110.264 39.384 110.624 38.344 110.624C37.304 110.624 36.56 110.328 36.112 109.736C35.664 109.128 35.44 108.232 35.44 107.048C35.44 105.848 35.944 102.464 36.952 96.896L35.68 94.328C37.488 93.16 39.136 92.576 40.624 92.576C41.28 92.576 41.832 92.648 42.28 92.792C42.744 92.92 43.184 93.176 43.6 93.56C44.032 93.944 44.384 94.48 44.656 95.168C45.28 96.72 45.728 98.984 46 101.96H46.288C47.12 99.512 48.272 97.408 49.744 95.648C50.544 94.704 51.496 93.96 52.6 93.416C53.72 92.872 54.928 92.6 56.224 92.6C57.456 92.6 58.072 93.344 58.072 94.832C58.072 95.328 57.76 97.176 57.136 100.376C56.528 103.56 56.224 105.456 56.224 106.064C56.224 107.616 56.464 108.776 56.944 109.544C55.984 110.264 54.984 110.624 53.944 110.624ZM66.8112 110.6C64.6192 110.6 62.9232 110.032 61.7232 108.896C60.5392 107.76 59.9472 106.224 59.9472 104.288C59.9472 101.712 60.8272 99.624 62.5872 98.024C64.3632 96.408 66.5872 95.6 69.2592 95.6C70.7472 95.6 71.8752 95.936 72.6432 96.608C73.4112 97.264 73.7952 98.136 73.7952 99.224C73.7952 100.712 73.0672 101.952 71.6112 102.944C70.1712 103.92 67.9392 104.416 64.9152 104.432C64.9632 105.456 65.1952 106.264 65.6112 106.856C66.0272 107.432 66.5472 107.72 67.1712 107.72C67.7952 107.72 68.3312 107.512 68.7792 107.096C69.2432 106.68 69.4752 106 69.4752 105.056C71.8112 105.056 72.9792 105.608 72.9792 106.712C72.9792 107.656 72.4032 108.544 71.2512 109.376C70.0992 110.192 68.6192 110.6 66.8112 110.6ZM68.8512 98.408C68.0352 98.408 67.2832 98.816 66.5952 99.632C65.9232 100.448 65.4352 101.408 65.1312 102.512C66.7312 102.384 67.9312 102.024 68.7312 101.432C69.5472 100.824 69.9552 100.184 69.9552 99.512C69.9552 99.192 69.8512 98.928 69.6432 98.72C69.4512 98.512 69.1872 98.408 68.8512 98.408ZM85.0086 108.248L84.7686 108.128C83.5206 109.776 82.0326 110.6 80.3046 110.6C79.0246 110.6 77.9366 110.096 77.0406 109.088C76.1606 108.064 75.7206 106.688 75.7206 104.96C75.7206 102.816 76.4726 100.864 77.9766 99.104C78.7126 98.24 79.6966 97.544 80.9286 97.016C82.1606 96.472 83.5366 96.2 85.0566 96.2C85.3446 96.2 85.8566 96.232 86.5926 96.296C86.6246 95.96 86.6966 95.552 86.8086 95.072L85.4646 93.152C87.4646 91.984 89.0406 91.4 90.1926 91.4C90.8486 91.4 91.3126 91.536 91.5846 91.808C91.8566 92.064 91.9926 92.56 91.9926 93.296C91.9926 94.016 91.6326 96.064 90.9126 99.44C90.2086 102.816 89.8566 105.216 89.8566 106.64C89.8566 108.048 90.1046 108.976 90.6006 109.424C89.7046 110.208 88.7686 110.6 87.7926 110.6C86.8326 110.6 86.1286 110.36 85.6806 109.88C85.2326 109.384 85.0086 108.84 85.0086 108.248ZM80.2326 104.048C80.2326 104.96 80.4646 105.68 80.9286 106.208C81.4086 106.736 82.0006 107 82.7046 107C83.6166 107 84.4486 106.568 85.2006 105.704C85.4566 102.856 85.8166 100.392 86.2806 98.312C84.4406 98.312 82.9686 98.904 81.8646 100.088C80.7766 101.272 80.2326 102.592 80.2326 104.048ZM101.666 91.808C101.666 92.416 101.346 92.944 100.706 93.392C100.066 93.824 99.3378 94.04 98.5218 94.04C97.7058 94.04 97.0578 93.88 96.5778 93.56C96.1138 93.24 95.8818 92.808 95.8818 92.264C95.8818 91.528 96.2258 90.952 96.9138 90.536C97.6018 90.12 98.3298 89.912 99.0978 89.912C99.8658 89.912 100.482 90.072 100.946 90.392C101.426 90.712 101.666 91.184 101.666 91.808ZM96.9858 110.6C95.9938 110.6 95.2738 110.352 94.8258 109.856C94.3778 109.36 94.1538 108.608 94.1538 107.6C94.1538 106.576 94.6658 103.848 95.6898 99.416L94.3458 97.4C96.3458 96.2 97.9218 95.6 99.0738 95.6C99.7298 95.6 100.194 95.744 100.466 96.032C100.738 96.304 100.874 96.752 100.874 97.376C100.874 97.616 100.578 99.024 99.9858 101.6C99.3938 104.176 99.0978 106.016 99.0978 107.12C99.0978 108.224 99.3458 108.992 99.8418 109.424C98.9458 110.208 97.9938 110.6 96.9858 110.6ZM110.874 98.792C110.282 98.968 109.81 99.224 109.458 99.56C109.106 99.88 108.794 100.344 108.522 100.952C111.226 101.352 113.13 101.928 114.234 102.68C115.338 103.432 115.89 104.504 115.89 105.896C115.89 106.776 115.642 107.544 115.146 108.2C114.65 108.84 114.026 109.328 113.274 109.664C111.802 110.288 110.354 110.6 108.93 110.6C104.882 110.6 102.858 109.728 102.858 107.984C102.858 107.104 103.25 106.224 104.034 105.344C104.434 105.904 105.034 106.384 105.834 106.784C106.65 107.184 107.442 107.384 108.21 107.384C109.538 107.384 110.338 106.8 110.61 105.632C108.178 105.344 106.418 104.8 105.33 104C104.242 103.2 103.698 102.072 103.698 100.616C103.698 99.464 104.074 98.496 104.826 97.712C105.594 96.928 106.538 96.384 107.658 96.08C108.794 95.76 110.066 95.6 111.474 95.6C112.898 95.6 114.066 95.872 114.978 96.416C115.906 96.944 116.37 97.592 116.37 98.36C116.37 99.128 116.098 99.72 115.554 100.136C115.026 100.552 114.442 100.76 113.802 100.76C113.178 100.76 112.602 100.592 112.074 100.256C111.562 99.92 111.162 99.432 110.874 98.792ZM125.288 109.52C124.536 109.792 123.784 109.928 123.032 109.928C122.28 109.928 121.648 109.704 121.136 109.256C120.624 108.808 120.328 108.2 120.248 107.432C120.168 106.664 120.096 105.552 120.032 104.096C119.968 102.624 119.904 101.584 119.84 100.976C119.632 98.944 118.992 97.496 117.92 96.632C118.672 95.944 119.616 95.6 120.752 95.6C121.376 95.6 121.92 95.768 122.384 96.104C122.848 96.424 123.216 96.856 123.488 97.4C123.776 97.928 124.008 98.616 124.184 99.464C124.456 100.872 124.592 102.776 124.592 105.176C124.592 105.768 124.568 106.464 124.52 107.264H125.912C127.56 102.816 128.384 99.784 128.384 98.168C128.384 97.624 128.264 97.112 128.024 96.632C129.144 95.944 130.12 95.6 130.952 95.6C132.504 95.6 133.28 96.496 133.28 98.288C133.28 99.712 132.624 102.216 131.312 105.8C131.072 106.456 130.936 106.84 130.904 106.952C128.872 112.744 125.984 115.64 122.24 115.64C121.104 115.64 120.168 115.392 119.432 114.896C118.696 114.416 118.328 113.776 118.328 112.976C118.328 112.192 118.624 111.368 119.216 110.504C119.984 111.592 120.944 112.136 122.096 112.136C122.752 112.136 123.36 111.92 123.92 111.488C124.496 111.056 124.952 110.4 125.288 109.52ZM138.088 110.6C137.144 110.6 136.448 110.352 136 109.856C135.552 109.36 135.328 108.704 135.328 107.888C135.328 107.072 135.488 105.744 135.808 103.904C136.144 102.064 136.488 100.384 136.84 98.864L135.592 96.944C137.176 96.048 138.64 95.6 139.984 95.6C141.328 95.6 142 96.208 142 97.424C142 98.224 141.816 99.04 141.448 99.872L141.688 99.992C143.4 97.064 145.576 95.6 148.216 95.6C150.152 95.6 151.12 96.568 151.12 98.504C151.12 99.336 150.88 100.744 150.4 102.728C149.936 104.712 149.704 106.208 149.704 107.216C149.704 108.224 149.872 108.96 150.208 109.424C149.36 110.208 148.464 110.6 147.52 110.6C145.68 110.6 144.76 109.608 144.76 107.624C144.76 106.888 145 105.64 145.48 103.88C145.96 102.12 146.2 100.976 146.2 100.448C146.2 99.728 145.928 99.368 145.384 99.368C144.936 99.368 144.424 99.568 143.848 99.968C143.272 100.352 142.712 100.88 142.168 101.552C141.64 102.208 141.192 103.048 140.824 104.072C140.456 105.08 140.272 106.112 140.272 107.168C140.272 108.208 140.44 108.96 140.776 109.424C139.928 110.208 139.032 110.6 138.088 110.6ZM153.275 104.288C153.275 101.728 154.155 99.64 155.915 98.024C157.675 96.408 159.891 95.6 162.563 95.6C163.939 95.6 165.027 95.864 165.827 96.392C166.627 96.904 167.027 97.552 167.027 98.336C167.027 99.12 166.755 99.72 166.211 100.136C165.683 100.552 165.099 100.76 164.459 100.76C163.835 100.76 163.259 100.592 162.731 100.256C162.219 99.92 161.819 99.432 161.531 98.792C160.523 99.208 159.723 99.944 159.131 101C158.555 102.056 158.267 103.112 158.267 104.168C158.267 105.224 158.475 106.08 158.891 106.736C159.307 107.392 159.851 107.72 160.523 107.72C161.195 107.72 161.739 107.496 162.155 107.048C162.587 106.6 162.803 105.936 162.803 105.056C165.139 105.056 166.307 105.608 166.307 106.712C166.307 107.656 165.715 108.544 164.531 109.376C163.347 110.192 161.787 110.6 159.851 110.6C157.915 110.6 156.331 110.024 155.099 108.872C153.883 107.704 153.275 106.176 153.275 104.288Z" fill="black"/>
</svg>
