<svg width="358" height="83" viewBox="0 0 358 83" fill="none" xmlns="http://www.w3.org/2000/svg">
<rect width="358" height="83" rx="20" fill="#4C4FFB"/>
<path d="M64.793 49.1758C62.4492 49.1758 60.7188 48.5664 59.6016 47.3477C58.4922 46.1289 57.9375 44.2344 57.9375 41.6641C57.9375 36.7188 60.2578 34.2461 64.8984 34.2461C65.5312 34.2461 66.1875 34.3086 66.8672 34.4336C67.5469 34.5586 68.1133 34.7344 68.5664 34.9609C69.0273 35.1797 69.2578 35.4258 69.2578 35.6992C69.2578 35.8945 69.1797 36.1523 69.0234 36.4727C68.8672 36.7852 68.6797 37.0625 68.4609 37.3047C68.25 37.5469 68.0625 37.668 67.8984 37.668C67.8594 37.668 67.7539 37.6289 67.582 37.5508C67.207 37.3945 66.8125 37.2656 66.3984 37.1641C65.9922 37.0547 65.4727 37 64.8398 37C63.6133 37 62.7031 37.3906 62.1094 38.1719C61.5234 38.9453 61.2305 40.1172 61.2305 41.6875C61.2305 43.2578 61.5273 44.4414 62.1211 45.2383C62.7148 46.0352 63.6055 46.4336 64.793 46.4336C65.4102 46.4336 65.9453 46.3711 66.3984 46.2461C66.8594 46.1211 67.3086 45.9609 67.7461 45.7656C67.7695 45.7578 67.8398 45.7305 67.957 45.6836C68.0742 45.6289 68.1602 45.6016 68.2148 45.6016C68.418 45.6016 68.6133 45.7227 68.8008 45.9648C68.9883 46.1992 69.1406 46.4688 69.2578 46.7734C69.375 47.0703 69.4336 47.2852 69.4336 47.418C69.4336 47.8008 69.1758 48.125 68.6602 48.3906C68.1523 48.6562 67.5352 48.8555 66.8086 48.9883C66.0898 49.1133 65.418 49.1758 64.793 49.1758ZM74.2734 49.1758C73.2812 49.1758 72.5234 48.8984 72 48.3438C71.4844 47.7812 71.2266 46.9297 71.2266 45.7891V33.9648C71.2266 33.5117 71.6445 33.2852 72.4805 33.2852H73.0664C73.4961 33.2852 73.8086 33.3438 74.0039 33.4609C74.207 33.5703 74.3086 33.7383 74.3086 33.9648V45.8242C74.3086 46.1445 74.3672 46.375 74.4844 46.5156C74.6016 46.6562 74.7969 46.7266 75.0703 46.7266C75.1406 46.7266 75.2461 46.7109 75.3867 46.6797C75.4258 46.6719 75.4648 46.6641 75.5039 46.6562C75.543 46.6484 75.5859 46.6445 75.6328 46.6445C75.75 46.6445 75.8555 46.75 75.9492 46.9609C76.0508 47.1641 76.1289 47.3945 76.1836 47.6523C76.2383 47.9023 76.2656 48.0664 76.2656 48.1445C76.2656 48.832 75.6016 49.1758 74.2734 49.1758ZM78.6094 36.3086C78.1719 36.3086 77.8516 36.2539 77.6484 36.1445C77.4531 36.0352 77.3555 35.8672 77.3555 35.6406V33.9648C77.3555 33.7383 77.457 33.5703 77.6602 33.4609C77.8633 33.3438 78.1797 33.2852 78.6094 33.2852H79.1836C79.6133 33.2852 79.9297 33.3438 80.1328 33.4609C80.3359 33.5703 80.4375 33.7383 80.4375 33.9648V35.6406C80.4375 35.8672 80.3359 36.0352 80.1328 36.1445C79.9375 36.2539 79.6211 36.3086 79.1836 36.3086H78.6094ZM78.6094 49.0352C77.7734 49.0352 77.3555 48.8164 77.3555 48.3789V38.7227C77.3555 38.5039 77.457 38.3398 77.6602 38.2305C77.8633 38.1211 78.1797 38.0664 78.6094 38.0664H79.1836C79.6133 38.0664 79.9297 38.1211 80.1328 38.2305C80.3359 38.3398 80.4375 38.5039 80.4375 38.7227V48.3789C80.4375 48.8164 80.0195 49.0352 79.1836 49.0352H78.6094ZM87.7734 49.1758C86 49.1758 84.6836 48.7188 83.8242 47.8047C82.9648 46.8828 82.5352 45.4883 82.5352 43.6211C82.5352 41.7383 82.9688 40.3203 83.8359 39.3672C84.7031 38.4141 86.0547 37.9375 87.8906 37.9375C88.4141 37.9375 88.9414 37.9961 89.4727 38.1133C90.0117 38.2227 90.457 38.3867 90.8086 38.6055C91.168 38.8164 91.3477 39.0742 91.3477 39.3789C91.3477 39.5039 91.2773 39.6992 91.1367 39.9648C91.0039 40.2305 90.8477 40.4688 90.668 40.6797C90.4961 40.8828 90.3516 40.9844 90.2344 40.9844C90.1797 40.9844 90.0586 40.9297 89.8711 40.8203C89.5742 40.6797 89.293 40.5703 89.0273 40.4922C88.7617 40.4062 88.4375 40.3633 88.0547 40.3633C87.2344 40.3633 86.6367 40.625 86.2617 41.1484C85.8867 41.6641 85.6992 42.4609 85.6992 43.5391C85.6992 44.625 85.875 45.4297 86.2266 45.9531C86.5859 46.4688 87.1562 46.7266 87.9375 46.7266C88.3672 46.7266 88.7422 46.6836 89.0625 46.5977C89.3828 46.5039 89.6875 46.3867 89.9766 46.2461C90.0312 46.2227 90.0977 46.1953 90.1758 46.1641C90.2539 46.1328 90.3125 46.1172 90.3516 46.1172C90.4922 46.1172 90.6445 46.2188 90.8086 46.4219C90.9805 46.6172 91.125 46.8438 91.2422 47.1016C91.3672 47.3594 91.4297 47.5586 91.4297 47.6992C91.4297 48.0586 91.1953 48.3477 90.7266 48.5664C90.2578 48.7852 89.7344 48.9414 89.1562 49.0352C88.5781 49.1289 88.1172 49.1758 87.7734 49.1758ZM94.3945 49.0352C93.5586 49.0352 93.1406 48.8164 93.1406 48.3789V33.9648C93.1406 33.7383 93.2422 33.5703 93.4453 33.4609C93.6484 33.3438 93.9648 33.2852 94.3945 33.2852H94.9688C95.8047 33.2852 96.2227 33.5117 96.2227 33.9648V42.2031L96.293 42.2266L98.8242 38.4648C98.9336 38.3008 99.0859 38.1953 99.2812 38.1484C99.4766 38.0938 99.7461 38.0664 100.09 38.0664H100.863C101.645 38.0664 102.035 38.1719 102.035 38.3828C102.035 38.4922 101.969 38.625 101.836 38.7812L98.9531 42.918L102.34 48.2852C102.457 48.4805 102.516 48.625 102.516 48.7188C102.516 48.9297 102.117 49.0352 101.32 49.0352H100.453C100.117 49.0352 99.8438 49.0078 99.6328 48.9531C99.4219 48.8984 99.2773 48.793 99.1992 48.6367L96.293 43.8438L96.2227 43.8789V48.3789C96.2227 48.8164 95.8047 49.0352 94.9688 49.0352H94.3945ZM110.262 49.0352C109.426 49.0352 109.008 48.8164 109.008 48.3789V33.9648C109.008 33.7383 109.109 33.5703 109.312 33.4609C109.516 33.3438 109.832 33.2852 110.262 33.2852H110.836C111.672 33.2852 112.09 33.5117 112.09 33.9648V39.3438C112.434 38.9297 112.859 38.5938 113.367 38.3359C113.883 38.0703 114.434 37.9375 115.02 37.9375C116.066 37.9375 116.852 38.2148 117.375 38.7695C117.898 39.3164 118.16 40.1602 118.16 41.3008V48.3789C118.16 48.8164 117.746 49.0352 116.918 49.0352H116.344C115.5 49.0352 115.078 48.8164 115.078 48.3789V41.7695C115.078 40.9102 114.633 40.4805 113.742 40.4805C113.367 40.4805 113.035 40.6055 112.746 40.8555C112.465 41.0977 112.246 41.375 112.09 41.6875V48.3789C112.09 48.8164 111.672 49.0352 110.836 49.0352H110.262ZM125.73 49.1758C123.902 49.1758 122.539 48.6875 121.641 47.7109C120.742 46.7266 120.293 45.3633 120.293 43.6211C120.293 41.6602 120.742 40.2227 121.641 39.3086C122.539 38.3945 123.777 37.9375 125.355 37.9375C126.402 37.9375 127.258 38.1758 127.922 38.6523C128.594 39.1289 129.082 39.7695 129.387 40.5742C129.699 41.3789 129.855 42.2891 129.855 43.3047C129.855 43.4219 129.785 43.5781 129.645 43.7734C129.512 43.9688 129.359 44.1445 129.188 44.3008C129.016 44.457 128.883 44.5352 128.789 44.5352H123.48C123.551 45.332 123.785 45.8984 124.184 46.2344C124.59 46.5625 125.152 46.7266 125.871 46.7266C126.262 46.7266 126.613 46.6836 126.926 46.5977C127.246 46.5039 127.586 46.3828 127.945 46.2344C128.164 46.1328 128.312 46.082 128.391 46.082C128.531 46.082 128.684 46.1836 128.848 46.3867C129.02 46.582 129.164 46.8086 129.281 47.0664C129.406 47.3242 129.469 47.5234 129.469 47.6641C129.469 47.9844 129.25 48.2578 128.812 48.4844C128.383 48.7109 127.871 48.8828 127.277 49C126.691 49.1172 126.176 49.1758 125.73 49.1758ZM126.855 42.4844C126.855 41.8438 126.73 41.332 126.48 40.9492C126.23 40.5586 125.855 40.3633 125.355 40.3633C124.324 40.3633 123.699 41.0703 123.48 42.4844H126.855ZM133.207 49.0352C132.379 49.0352 131.965 48.8164 131.965 48.3789V41.7695C131.965 40.7695 131.898 39.9375 131.766 39.2734C131.727 39.0625 131.707 38.9141 131.707 38.8281C131.707 38.6719 131.852 38.5469 132.141 38.4531C132.438 38.3516 132.77 38.2773 133.137 38.2305C133.512 38.1836 133.812 38.1602 134.039 38.1602C134.281 38.1602 134.449 38.25 134.543 38.4297C134.645 38.6094 134.734 38.8711 134.812 39.2148L134.883 39.5195C135.148 39.0352 135.453 38.6523 135.797 38.3711C136.148 38.082 136.598 37.9375 137.145 37.9375C137.598 37.9375 137.91 38.0547 138.082 38.2891C138.254 38.5156 138.34 38.7734 138.34 39.0625C138.34 39.2188 138.312 39.4414 138.258 39.7305C138.203 40.0117 138.125 40.2617 138.023 40.4805C137.922 40.6992 137.809 40.8086 137.684 40.8086C137.598 40.8086 137.469 40.7852 137.297 40.7383C137.062 40.6758 136.863 40.6445 136.699 40.6445C136.316 40.6445 135.98 40.7539 135.691 40.9727C135.41 41.1836 135.195 41.4219 135.047 41.6875V48.3789C135.047 48.8164 134.625 49.0352 133.781 49.0352H133.207ZM144.598 49.1758C142.77 49.1758 141.406 48.6875 140.508 47.7109C139.609 46.7266 139.16 45.3633 139.16 43.6211C139.16 41.6602 139.609 40.2227 140.508 39.3086C141.406 38.3945 142.645 37.9375 144.223 37.9375C145.27 37.9375 146.125 38.1758 146.789 38.6523C147.461 39.1289 147.949 39.7695 148.254 40.5742C148.566 41.3789 148.723 42.2891 148.723 43.3047C148.723 43.4219 148.652 43.5781 148.512 43.7734C148.379 43.9688 148.227 44.1445 148.055 44.3008C147.883 44.457 147.75 44.5352 147.656 44.5352H142.348C142.418 45.332 142.652 45.8984 143.051 46.2344C143.457 46.5625 144.02 46.7266 144.738 46.7266C145.129 46.7266 145.48 46.6836 145.793 46.5977C146.113 46.5039 146.453 46.3828 146.812 46.2344C147.031 46.1328 147.18 46.082 147.258 46.082C147.398 46.082 147.551 46.1836 147.715 46.3867C147.887 46.582 148.031 46.8086 148.148 47.0664C148.273 47.3242 148.336 47.5234 148.336 47.6641C148.336 47.9844 148.117 48.2578 147.68 48.4844C147.25 48.7109 146.738 48.8828 146.145 49C145.559 49.1172 145.043 49.1758 144.598 49.1758ZM145.723 42.4844C145.723 41.8438 145.598 41.332 145.348 40.9492C145.098 40.5586 144.723 40.3633 144.223 40.3633C143.191 40.3633 142.566 41.0703 142.348 42.4844H145.723ZM157.441 49.0352C156.613 49.0352 156.199 48.8164 156.199 48.3789V40.5391H155.824C155.605 40.5391 155.445 40.457 155.344 40.293C155.25 40.1289 155.203 39.8633 155.203 39.4961V39.1445C155.203 38.7773 155.25 38.5117 155.344 38.3477C155.445 38.1836 155.605 38.1016 155.824 38.1016H156.199V36.543C156.199 34.293 157.215 33.168 159.246 33.168C160.629 33.168 161.32 33.5078 161.32 34.1875C161.32 34.2734 161.289 34.4414 161.227 34.6914C161.172 34.9414 161.094 35.1719 160.992 35.3828C160.898 35.5859 160.789 35.6875 160.664 35.6875C160.594 35.6875 160.508 35.6758 160.406 35.6523C160.25 35.6211 160.125 35.6055 160.031 35.6055C159.758 35.6055 159.562 35.6758 159.445 35.8164C159.336 35.9492 159.281 36.1758 159.281 36.4961V38.1016H160.324C160.543 38.1016 160.699 38.1836 160.793 38.3477C160.895 38.5117 160.945 38.7773 160.945 39.1445V39.4961C160.945 39.8633 160.895 40.1289 160.793 40.293C160.699 40.457 160.543 40.5391 160.324 40.5391H159.281V48.3789C159.281 48.8164 158.863 49.0352 158.027 49.0352H157.441ZM167.262 49.1758C165.613 49.1758 164.355 48.6914 163.488 47.7227C162.629 46.7539 162.199 45.3594 162.199 43.5391C162.199 41.7266 162.629 40.3398 163.488 39.3789C164.355 38.418 165.613 37.9375 167.262 37.9375C168.91 37.9375 170.16 38.418 171.012 39.3789C171.871 40.332 172.301 41.7188 172.301 43.5391C172.301 45.3594 171.871 46.7539 171.012 47.7227C170.16 48.6914 168.91 49.1758 167.262 49.1758ZM167.262 46.7266C167.918 46.7266 168.398 46.4609 168.703 45.9297C169.016 45.3984 169.172 44.6016 169.172 43.5391C169.172 42.4844 169.016 41.6914 168.703 41.1602C168.398 40.6289 167.918 40.3633 167.262 40.3633C165.965 40.3633 165.316 41.4219 165.316 43.5391C165.316 44.5938 165.473 45.3906 165.785 45.9297C166.105 46.4609 166.598 46.7266 167.262 46.7266ZM175.723 49.0352C174.895 49.0352 174.48 48.8164 174.48 48.3789V41.7695C174.48 40.7695 174.414 39.9375 174.281 39.2734C174.242 39.0625 174.223 38.9141 174.223 38.8281C174.223 38.6719 174.367 38.5469 174.656 38.4531C174.953 38.3516 175.285 38.2773 175.652 38.2305C176.027 38.1836 176.328 38.1602 176.555 38.1602C176.797 38.1602 176.965 38.25 177.059 38.4297C177.16 38.6094 177.25 38.8711 177.328 39.2148L177.398 39.5195C177.664 39.0352 177.969 38.6523 178.312 38.3711C178.664 38.082 179.113 37.9375 179.66 37.9375C180.113 37.9375 180.426 38.0547 180.598 38.2891C180.77 38.5156 180.855 38.7734 180.855 39.0625C180.855 39.2188 180.828 39.4414 180.773 39.7305C180.719 40.0117 180.641 40.2617 180.539 40.4805C180.438 40.6992 180.324 40.8086 180.199 40.8086C180.113 40.8086 179.984 40.7852 179.812 40.7383C179.578 40.6758 179.379 40.6445 179.215 40.6445C178.832 40.6445 178.496 40.7539 178.207 40.9727C177.926 41.1836 177.711 41.4219 177.562 41.6875V48.3789C177.562 48.8164 177.141 49.0352 176.297 49.0352H175.723ZM199.066 37.9375C200.105 37.9375 200.871 38.2109 201.363 38.7578C201.863 39.3047 202.113 40.1523 202.113 41.3008V48.3789C202.113 48.8164 201.691 49.0352 200.848 49.0352H200.273C199.445 49.0352 199.031 48.8164 199.031 48.3789V41.7695C199.031 41.3477 198.934 41.0273 198.738 40.8086C198.551 40.5898 198.234 40.4805 197.789 40.4805C197.398 40.4805 197.066 40.6016 196.793 40.8438C196.527 41.0781 196.312 41.3516 196.148 41.6641V48.3789C196.148 48.8164 195.73 49.0352 194.895 49.0352H194.309C193.48 49.0352 193.066 48.8164 193.066 48.3789V41.7695C193.066 41.3477 192.969 41.0273 192.773 40.8086C192.586 40.5898 192.273 40.4805 191.836 40.4805C191.461 40.4805 191.129 40.6055 190.84 40.8555C190.559 41.1055 190.344 41.3828 190.195 41.6875V48.3789C190.195 48.8164 189.773 49.0352 188.93 49.0352H188.355C187.527 49.0352 187.113 48.8164 187.113 48.3789V41.7695C187.113 40.7695 187.047 39.9375 186.914 39.2734C186.875 39.0625 186.855 38.9141 186.855 38.8281C186.855 38.6719 187 38.5469 187.289 38.4531C187.586 38.3516 187.918 38.2773 188.285 38.2305C188.66 38.1836 188.961 38.1602 189.188 38.1602C189.43 38.1602 189.598 38.25 189.691 38.4297C189.793 38.6094 189.883 38.8711 189.961 39.2148L190.031 39.5195C190.359 39.0742 190.797 38.6992 191.344 38.3945C191.891 38.0898 192.48 37.9375 193.113 37.9375C193.832 37.9375 194.414 38.0664 194.859 38.3242C195.312 38.582 195.645 38.9805 195.855 39.5195C196.207 39.0742 196.668 38.6992 197.238 38.3945C197.809 38.0898 198.418 37.9375 199.066 37.9375ZM209.426 49.1758C207.777 49.1758 206.52 48.6914 205.652 47.7227C204.793 46.7539 204.363 45.3594 204.363 43.5391C204.363 41.7266 204.793 40.3398 205.652 39.3789C206.52 38.418 207.777 37.9375 209.426 37.9375C211.074 37.9375 212.324 38.418 213.176 39.3789C214.035 40.332 214.465 41.7188 214.465 43.5391C214.465 45.3594 214.035 46.7539 213.176 47.7227C212.324 48.6914 211.074 49.1758 209.426 49.1758ZM209.426 46.7266C210.082 46.7266 210.562 46.4609 210.867 45.9297C211.18 45.3984 211.336 44.6016 211.336 43.5391C211.336 42.4844 211.18 41.6914 210.867 41.1602C210.562 40.6289 210.082 40.3633 209.426 40.3633C208.129 40.3633 207.48 41.4219 207.48 43.5391C207.48 44.5938 207.637 45.3906 207.949 45.9297C208.27 46.4609 208.762 46.7266 209.426 46.7266ZM217.887 49.0352C217.059 49.0352 216.645 48.8164 216.645 48.3789V41.7695C216.645 40.7695 216.578 39.9375 216.445 39.2734C216.406 39.0625 216.387 38.9141 216.387 38.8281C216.387 38.6719 216.531 38.5469 216.82 38.4531C217.117 38.3516 217.449 38.2773 217.816 38.2305C218.191 38.1836 218.492 38.1602 218.719 38.1602C218.961 38.1602 219.129 38.25 219.223 38.4297C219.324 38.6094 219.414 38.8711 219.492 39.2148L219.562 39.5195C219.828 39.0352 220.133 38.6523 220.477 38.3711C220.828 38.082 221.277 37.9375 221.824 37.9375C222.277 37.9375 222.59 38.0547 222.762 38.2891C222.934 38.5156 223.02 38.7734 223.02 39.0625C223.02 39.2188 222.992 39.4414 222.938 39.7305C222.883 40.0117 222.805 40.2617 222.703 40.4805C222.602 40.6992 222.488 40.8086 222.363 40.8086C222.277 40.8086 222.148 40.7852 221.977 40.7383C221.742 40.6758 221.543 40.6445 221.379 40.6445C220.996 40.6445 220.66 40.7539 220.371 40.9727C220.09 41.1836 219.875 41.4219 219.727 41.6875V48.3789C219.727 48.8164 219.305 49.0352 218.461 49.0352H217.887ZM229.277 49.1758C227.449 49.1758 226.086 48.6875 225.188 47.7109C224.289 46.7266 223.84 45.3633 223.84 43.6211C223.84 41.6602 224.289 40.2227 225.188 39.3086C226.086 38.3945 227.324 37.9375 228.902 37.9375C229.949 37.9375 230.805 38.1758 231.469 38.6523C232.141 39.1289 232.629 39.7695 232.934 40.5742C233.246 41.3789 233.402 42.2891 233.402 43.3047C233.402 43.4219 233.332 43.5781 233.191 43.7734C233.059 43.9688 232.906 44.1445 232.734 44.3008C232.562 44.457 232.43 44.5352 232.336 44.5352H227.027C227.098 45.332 227.332 45.8984 227.73 46.2344C228.137 46.5625 228.699 46.7266 229.418 46.7266C229.809 46.7266 230.16 46.6836 230.473 46.5977C230.793 46.5039 231.133 46.3828 231.492 46.2344C231.711 46.1328 231.859 46.082 231.938 46.082C232.078 46.082 232.23 46.1836 232.395 46.3867C232.566 46.582 232.711 46.8086 232.828 47.0664C232.953 47.3242 233.016 47.5234 233.016 47.6641C233.016 47.9844 232.797 48.2578 232.359 48.4844C231.93 48.7109 231.418 48.8828 230.824 49C230.238 49.1172 229.723 49.1758 229.277 49.1758ZM230.402 42.4844C230.402 41.8438 230.277 41.332 230.027 40.9492C229.777 40.5586 229.402 40.3633 228.902 40.3633C227.871 40.3633 227.246 41.0703 227.027 42.4844H230.402ZM244.008 49.1758C243.25 49.1758 242.574 48.957 241.98 48.5195C241.395 48.0742 240.934 47.4297 240.598 46.5859C240.27 45.7344 240.105 44.7188 240.105 43.5391C240.105 42.4062 240.277 41.418 240.621 40.5742C240.965 39.7305 241.465 39.082 242.121 38.6289C242.785 38.168 243.578 37.9375 244.5 37.9375C245.328 37.9375 246.035 38.1523 246.621 38.582V33.9648C246.621 33.5117 247.039 33.2852 247.875 33.2852H248.461C248.891 33.2852 249.203 33.3438 249.398 33.4609C249.602 33.5703 249.703 33.7383 249.703 33.9648V45.3203C249.703 45.9688 249.719 46.4727 249.75 46.832C249.789 47.1914 249.84 47.5469 249.902 47.8984C249.941 48.1094 249.961 48.2578 249.961 48.3438C249.961 48.5 249.812 48.6289 249.516 48.7305C249.227 48.832 248.895 48.9062 248.52 48.9531C248.152 49 247.855 49.0234 247.629 49.0234C247.387 49.0234 247.215 48.9297 247.113 48.7422C247.02 48.5547 246.934 48.2812 246.855 47.9219L246.785 47.6055C246.535 48.0664 246.164 48.4453 245.672 48.7422C245.18 49.0312 244.625 49.1758 244.008 49.1758ZM244.922 46.6445C245.578 46.6445 246.145 46.2344 246.621 45.4141V40.7617C246.129 40.4961 245.645 40.3633 245.168 40.3633C243.871 40.3633 243.223 41.4219 243.223 43.5391C243.223 45.6094 243.789 46.6445 244.922 46.6445ZM257.332 49.1758C255.504 49.1758 254.141 48.6875 253.242 47.7109C252.344 46.7266 251.895 45.3633 251.895 43.6211C251.895 41.6602 252.344 40.2227 253.242 39.3086C254.141 38.3945 255.379 37.9375 256.957 37.9375C258.004 37.9375 258.859 38.1758 259.523 38.6523C260.195 39.1289 260.684 39.7695 260.988 40.5742C261.301 41.3789 261.457 42.2891 261.457 43.3047C261.457 43.4219 261.387 43.5781 261.246 43.7734C261.113 43.9688 260.961 44.1445 260.789 44.3008C260.617 44.457 260.484 44.5352 260.391 44.5352H255.082C255.152 45.332 255.387 45.8984 255.785 46.2344C256.191 46.5625 256.754 46.7266 257.473 46.7266C257.863 46.7266 258.215 46.6836 258.527 46.5977C258.848 46.5039 259.188 46.3828 259.547 46.2344C259.766 46.1328 259.914 46.082 259.992 46.082C260.133 46.082 260.285 46.1836 260.449 46.3867C260.621 46.582 260.766 46.8086 260.883 47.0664C261.008 47.3242 261.07 47.5234 261.07 47.6641C261.07 47.9844 260.852 48.2578 260.414 48.4844C259.984 48.7109 259.473 48.8828 258.879 49C258.293 49.1172 257.777 49.1758 257.332 49.1758ZM258.457 42.4844C258.457 41.8438 258.332 41.332 258.082 40.9492C257.832 40.5586 257.457 40.3633 256.957 40.3633C255.926 40.3633 255.301 41.0703 255.082 42.4844H258.457ZM266.918 49.1758C265.926 49.1758 265.168 48.8984 264.645 48.3438C264.129 47.7812 263.871 46.9297 263.871 45.7891V40.5391H263.543C263.324 40.5391 263.164 40.457 263.062 40.293C262.969 40.1289 262.922 39.8633 262.922 39.4961V39.1445C262.922 38.7773 262.969 38.5117 263.062 38.3477C263.164 38.1836 263.324 38.1016 263.543 38.1016H263.871L264.141 36.1211C264.203 35.6836 264.578 35.4648 265.266 35.4648H265.922C266.281 35.4648 266.543 35.5195 266.707 35.6289C266.879 35.7383 266.965 35.9023 266.965 36.1211V38.1016H267.984C268.203 38.1016 268.359 38.1836 268.453 38.3477C268.555 38.5117 268.605 38.7773 268.605 39.1445V39.4961C268.605 39.8633 268.555 40.1289 268.453 40.293C268.359 40.457 268.203 40.5391 267.984 40.5391H266.965V45.8242C266.965 46.1445 267.02 46.375 267.129 46.5156C267.246 46.6562 267.438 46.7266 267.703 46.7266C267.781 46.7266 267.887 46.7148 268.02 46.6914C268.152 46.6602 268.234 46.6445 268.266 46.6445C268.391 46.6445 268.5 46.75 268.594 46.9609C268.695 47.1641 268.773 47.3906 268.828 47.6406C268.891 47.8906 268.922 48.0586 268.922 48.1445C268.922 48.832 268.254 49.1758 266.918 49.1758ZM273.375 49.1758C272.312 49.1758 271.531 48.8984 271.031 48.3438C270.539 47.7812 270.293 47.0391 270.293 46.1172C270.293 45.4219 270.438 44.7969 270.727 44.2422C271.016 43.6797 271.602 43.207 272.484 42.8242C273.367 42.4414 274.629 42.25 276.27 42.25V41.5586C276.27 41.1523 276.141 40.8516 275.883 40.6562C275.625 40.4609 275.215 40.3633 274.652 40.3633C274.184 40.3633 273.781 40.4141 273.445 40.5156C273.109 40.6094 272.746 40.7383 272.355 40.9023C272.152 40.9961 272.027 41.043 271.98 41.043C271.84 41.043 271.684 40.9375 271.512 40.7266C271.348 40.5156 271.203 40.2734 271.078 40C270.953 39.7266 270.891 39.5195 270.891 39.3789C270.891 39.1367 271.062 38.9062 271.406 38.6875C271.758 38.4609 272.238 38.2812 272.848 38.1484C273.457 38.0078 274.133 37.9375 274.875 37.9375C276.438 37.9375 277.574 38.25 278.285 38.875C278.996 39.4922 279.352 40.3398 279.352 41.418V45.3203C279.352 45.9688 279.367 46.4727 279.398 46.832C279.438 47.1914 279.488 47.5469 279.551 47.8984C279.59 48.1094 279.609 48.2578 279.609 48.3438C279.609 48.5 279.461 48.6289 279.164 48.7305C278.875 48.832 278.543 48.9062 278.168 48.9531C277.793 49 277.492 49.0234 277.266 49.0234C277.023 49.0234 276.848 48.9219 276.738 48.7188C276.637 48.5078 276.555 48.2227 276.492 47.8633C276.484 47.8164 276.477 47.7695 276.469 47.7227C276.461 47.6758 276.449 47.6289 276.434 47.582C276.355 47.7305 276.188 47.9297 275.93 48.1797C275.68 48.4297 275.336 48.6602 274.898 48.8711C274.461 49.0742 273.953 49.1758 273.375 49.1758ZM274.395 46.7266C274.785 46.7266 275.152 46.6055 275.496 46.3633C275.84 46.1133 276.098 45.7969 276.27 45.4141V44.2656C274.324 44.2656 273.352 44.7773 273.352 45.8008C273.352 46.0742 273.441 46.2969 273.621 46.4688C273.809 46.6406 274.066 46.7266 274.395 46.7266ZM283.266 36.3086C282.828 36.3086 282.508 36.2539 282.305 36.1445C282.109 36.0352 282.012 35.8672 282.012 35.6406V33.9648C282.012 33.7383 282.113 33.5703 282.316 33.4609C282.52 33.3438 282.836 33.2852 283.266 33.2852H283.84C284.27 33.2852 284.586 33.3438 284.789 33.4609C284.992 33.5703 285.094 33.7383 285.094 33.9648V35.6406C285.094 35.8672 284.992 36.0352 284.789 36.1445C284.594 36.2539 284.277 36.3086 283.84 36.3086H283.266ZM283.266 49.0352C282.43 49.0352 282.012 48.8164 282.012 48.3789V38.7227C282.012 38.5039 282.113 38.3398 282.316 38.2305C282.52 38.1211 282.836 38.0664 283.266 38.0664H283.84C284.27 38.0664 284.586 38.1211 284.789 38.2305C284.992 38.3398 285.094 38.5039 285.094 38.7227V48.3789C285.094 48.8164 284.676 49.0352 283.84 49.0352H283.266ZM290.672 49.1758C289.68 49.1758 288.922 48.8984 288.398 48.3438C287.883 47.7812 287.625 46.9297 287.625 45.7891V33.9648C287.625 33.5117 288.043 33.2852 288.879 33.2852H289.465C289.895 33.2852 290.207 33.3438 290.402 33.4609C290.605 33.5703 290.707 33.7383 290.707 33.9648V45.8242C290.707 46.1445 290.766 46.375 290.883 46.5156C291 46.6562 291.195 46.7266 291.469 46.7266C291.539 46.7266 291.645 46.7109 291.785 46.6797C291.824 46.6719 291.863 46.6641 291.902 46.6562C291.941 46.6484 291.984 46.6445 292.031 46.6445C292.148 46.6445 292.254 46.75 292.348 46.9609C292.449 47.1641 292.527 47.3945 292.582 47.6523C292.637 47.9023 292.664 48.0664 292.664 48.1445C292.664 48.832 292 49.1758 290.672 49.1758ZM296.625 49.1758C296.086 49.1758 295.551 49.1172 295.02 49C294.488 48.8828 294.047 48.7148 293.695 48.4961C293.352 48.2773 293.18 48.0273 293.18 47.7461C293.18 47.5742 293.242 47.3594 293.367 47.1016C293.492 46.8438 293.641 46.6211 293.812 46.4336C293.992 46.2383 294.148 46.1406 294.281 46.1406C294.352 46.1406 294.504 46.1953 294.738 46.3047C295.012 46.4297 295.273 46.5312 295.523 46.6094C295.773 46.6875 296.059 46.7266 296.379 46.7266C296.777 46.7266 297.078 46.6523 297.281 46.5039C297.484 46.3555 297.586 46.1367 297.586 45.8477C297.586 45.6289 297.523 45.4492 297.398 45.3086C297.281 45.1602 297.129 45.0391 296.941 44.9453C296.754 44.8516 296.488 44.7383 296.145 44.6055L295.805 44.4766C295.359 44.3047 294.969 44.1094 294.633 43.8906C294.297 43.6719 294.012 43.3555 293.777 42.9414C293.543 42.5195 293.426 41.9883 293.426 41.3477C293.426 40.6367 293.578 40.0273 293.883 39.5195C294.195 39.0039 294.637 38.6133 295.207 38.3477C295.777 38.0742 296.449 37.9375 297.223 37.9375C297.668 37.9375 298.133 37.9805 298.617 38.0664C299.102 38.1523 299.508 38.2852 299.836 38.4648C300.172 38.6445 300.34 38.8711 300.34 39.1445C300.34 39.3008 300.289 39.5117 300.188 39.7773C300.094 40.043 299.977 40.2773 299.836 40.4805C299.695 40.6836 299.562 40.7852 299.438 40.7852C299.398 40.7852 299.289 40.75 299.109 40.6797C298.867 40.5781 298.633 40.5 298.406 40.4453C298.188 40.3828 297.934 40.3516 297.645 40.3516C296.91 40.3516 296.543 40.5938 296.543 41.0781C296.543 41.2969 296.609 41.4844 296.742 41.6406C296.883 41.7969 297.055 41.9258 297.258 42.0273C297.461 42.1289 297.746 42.25 298.113 42.3906C298.535 42.5625 298.797 42.6719 298.898 42.7188C299.445 42.9922 299.883 43.3555 300.211 43.8086C300.547 44.2539 300.715 44.8516 300.715 45.6016C300.715 46.3125 300.555 46.9375 300.234 47.4766C299.914 48.0156 299.445 48.4336 298.828 48.7305C298.211 49.0273 297.477 49.1758 296.625 49.1758Z" fill="white"/>
</svg>
